G04 Layer_Color=65535*
%FSLAX25Y25*%
%MOIN*%
G70*
G01*
G75*
%ADD43C,0.01000*%
%ADD44C,0.02500*%
%ADD62C,0.00787*%
%ADD63C,0.00984*%
%ADD64C,0.01575*%
%ADD65C,0.00600*%
%ADD66C,0.00000*%
%ADD67C,0.00500*%
%ADD68C,0.00394*%
%ADD69C,0.00100*%
%ADD70R,0.01575X0.07093*%
D43*
X356469Y193524D02*
G03*
X356469Y193524I-500J0D01*
G01*
X334252Y65748D02*
G03*
X334252Y65748I-394J0D01*
G01*
X67417Y81411D02*
G03*
X64280Y81412I-1568J143D01*
G01*
X70553Y81411D02*
G03*
X67417Y81411I-1568J143D01*
G01*
X64280Y81412D02*
G03*
X61143Y81411I-1568J143D01*
G01*
X307874Y30584D02*
X334252D01*
Y1057D02*
Y30584D01*
X307874Y1057D02*
Y30584D01*
Y1057D02*
X334252D01*
X276996Y39394D02*
Y41894D01*
Y39394D02*
X285996D01*
Y41894D01*
X276996D02*
X285996D01*
X29717Y212634D02*
Y245634D01*
X1216Y212634D02*
X29717D01*
X1216D02*
Y245634D01*
X29717D01*
Y40980D02*
Y73980D01*
X1216Y40980D02*
X29717D01*
X1216D02*
Y73980D01*
X29717D01*
X37043Y29791D02*
X70043D01*
Y1291D02*
Y29791D01*
X37043Y1291D02*
X70043D01*
X37043D02*
Y29791D01*
X71063Y1291D02*
Y29791D01*
X131693Y1291D02*
Y29791D01*
X71063D02*
X131693D01*
X71063Y1291D02*
X131693D01*
X132713Y29717D02*
X165713D01*
Y1216D02*
Y29717D01*
X132713Y1216D02*
X165713D01*
X132713D02*
Y29717D01*
X166965D02*
X199965D01*
Y1216D02*
Y29717D01*
X166965Y1216D02*
X199965D01*
X166965D02*
Y29717D01*
X235469D02*
X268468D01*
Y1216D02*
Y29717D01*
X235469Y1216D02*
X268468D01*
X235469D02*
Y29717D01*
X201217D02*
X234216D01*
Y1216D02*
Y29717D01*
X201217Y1216D02*
X234216D01*
X201217D02*
Y29717D01*
X29717Y109484D02*
Y142484D01*
X1216Y109484D02*
X29717D01*
X1216D02*
Y142484D01*
X29717D01*
Y143736D02*
Y176736D01*
X1216Y143736D02*
X29717D01*
X1216D02*
Y176736D01*
X29717D01*
Y177988D02*
Y210988D01*
X1216Y177988D02*
X29717D01*
X1216D02*
Y210988D01*
X29717D01*
Y75232D02*
Y108232D01*
X1216Y75232D02*
X29717D01*
X1216D02*
Y108232D01*
X29717D01*
X344882Y191024D02*
X359055D01*
X344882D02*
Y231024D01*
X359055D01*
Y191024D02*
Y231024D01*
X259811Y133071D02*
X264311D01*
X259811D02*
X262311Y130571D01*
X259811Y133071D02*
X262311Y135571D01*
X259811Y145276D02*
X264311D01*
X259811D02*
X262311Y142776D01*
X259811Y145276D02*
X262311Y147776D01*
X259811Y155118D02*
X264311D01*
X259811D02*
X262311Y152618D01*
X259811Y155118D02*
X262311Y157618D01*
X189370Y230709D02*
X193307D01*
X191339Y192272D02*
Y196209D01*
X189370Y194240D02*
X193307D01*
X186978D02*
X193307Y200570D01*
X179984Y194240D02*
X186978D01*
X165385D02*
X172047D01*
X158661Y200963D02*
X165385Y194240D01*
X193307Y200570D02*
Y228522D01*
X158661Y200963D02*
Y228522D01*
X171984D01*
X179984D02*
X193307D01*
X262598Y39764D02*
X266535D01*
X242913D02*
X246850D01*
X242913Y71260D02*
X246850D01*
X262598D02*
X266535D01*
Y39764D02*
Y71260D01*
X242913Y39764D02*
Y71260D01*
X299213Y257874D02*
Y340551D01*
Y257874D02*
X472441D01*
Y340551D01*
X248512Y195756D02*
Y236756D01*
Y195756D02*
X269512D01*
Y236756D01*
X248512D02*
X269512D01*
X206665Y195276D02*
Y236221D01*
X238165Y195276D02*
Y236221D01*
X206665Y195276D02*
X238165D01*
X206665Y236221D02*
X238165D01*
X51806Y61339D02*
Y95639D01*
Y61339D02*
X65905D01*
X51806Y95639D02*
X65905D01*
Y93850D02*
Y95639D01*
X64394Y92339D02*
X65905Y93850D01*
Y51339D02*
Y61339D01*
X55905Y51339D02*
X75906Y51339D01*
X55905Y91339D02*
X62906D01*
X68906D02*
X75906D01*
X57989Y81411D02*
X61143D01*
X70553Y81411D02*
X73708D01*
X49905Y44339D02*
Y97339D01*
X82906Y44339D02*
Y97339D01*
X49905Y44339D02*
X82906D01*
X49905Y97339D02*
X82906D01*
X471417Y240094D02*
X491378D01*
Y39173D02*
Y240094D01*
X471417Y39094D02*
X491378D01*
X471417Y240094D02*
X471417Y39094D01*
X276063Y340551D02*
X496535D01*
X276063Y5512D02*
Y340551D01*
Y5512D02*
X496535D01*
Y340551D01*
X238925Y290449D02*
Y327449D01*
X157925Y290449D02*
X238925D01*
X157925D02*
Y327449D01*
X238925D01*
X286614Y112992D02*
Y116928D01*
X288582D01*
X289238Y116272D01*
Y114960D01*
X288582Y114304D01*
X286614D01*
X287926D02*
X289238Y112992D01*
X290550D02*
X291862D01*
X291206D01*
Y116928D01*
X290550Y116272D01*
X308365Y34105D02*
Y40103D01*
X311364D01*
X312364Y39103D01*
Y37104D01*
X311364Y36104D01*
X308365D01*
X314364Y34105D02*
X316363D01*
X315363D01*
Y40103D01*
X314364Y39103D01*
X323361Y40103D02*
X321361Y39103D01*
X319362Y37104D01*
Y35105D01*
X320361Y34105D01*
X322361D01*
X323361Y35105D01*
Y36104D01*
X322361Y37104D01*
X319362D01*
X337775Y238411D02*
Y235131D01*
X338431Y234475D01*
X339743D01*
X340399Y235131D01*
Y238411D01*
X341711Y234475D02*
X343022D01*
X342367D01*
Y238411D01*
X341711Y237755D01*
X344990Y234475D02*
X346302D01*
X345646D01*
Y238411D01*
X344990Y237755D01*
X393177Y212466D02*
X392521Y211810D01*
Y210498D01*
X393177Y209842D01*
X395801D01*
X396457Y210498D01*
Y211810D01*
X395801Y212466D01*
X393177Y213778D02*
X392521Y214434D01*
Y215746D01*
X393177Y216402D01*
X393833D01*
X394489Y215746D01*
Y215090D01*
Y215746D01*
X395145Y216402D01*
X395801D01*
X396457Y215746D01*
Y214434D01*
X395801Y213778D01*
X396457Y219682D02*
X392521D01*
X394489Y217714D01*
Y220338D01*
X372705Y212073D02*
X372048Y211417D01*
Y210105D01*
X372705Y209449D01*
X375328D01*
X375984Y210105D01*
Y211417D01*
X375328Y212073D01*
X372705Y213385D02*
X372048Y214040D01*
Y215352D01*
X372705Y216008D01*
X373360D01*
X374016Y215352D01*
Y214697D01*
Y215352D01*
X374672Y216008D01*
X375328D01*
X375984Y215352D01*
Y214040D01*
X375328Y213385D01*
X372705Y217320D02*
X372048Y217976D01*
Y219288D01*
X372705Y219944D01*
X373360D01*
X374016Y219288D01*
Y218632D01*
Y219288D01*
X374672Y219944D01*
X375328D01*
X375984Y219288D01*
Y217976D01*
X375328Y217320D01*
X409185Y199738D02*
X409841Y200394D01*
Y201706D01*
X409185Y202362D01*
X406562D01*
X405905Y201706D01*
Y200394D01*
X406562Y199738D01*
X409185Y198426D02*
X409841Y197771D01*
Y196459D01*
X409185Y195803D01*
X408529D01*
X407873Y196459D01*
Y197115D01*
Y196459D01*
X407217Y195803D01*
X406562D01*
X405905Y196459D01*
Y197771D01*
X406562Y198426D01*
X405905Y191867D02*
Y194491D01*
X408529Y191867D01*
X409185D01*
X409841Y192523D01*
Y193835D01*
X409185Y194491D01*
X321499Y208455D02*
X320843Y209111D01*
X319531D01*
X318875Y208455D01*
Y205831D01*
X319531Y205175D01*
X320843D01*
X321499Y205831D01*
X322811Y208455D02*
X323467Y209111D01*
X324779D01*
X325434Y208455D01*
Y207799D01*
X324779Y207143D01*
X324123D01*
X324779D01*
X325434Y206487D01*
Y205831D01*
X324779Y205175D01*
X323467D01*
X322811Y205831D01*
X326746Y205175D02*
X328058D01*
X327402D01*
Y209111D01*
X326746Y208455D01*
X373098Y194356D02*
X372442Y193700D01*
Y192388D01*
X373098Y191732D01*
X375722D01*
X376378Y192388D01*
Y193700D01*
X375722Y194356D01*
X373098Y195668D02*
X372442Y196324D01*
Y197636D01*
X373098Y198292D01*
X373754D01*
X374410Y197636D01*
Y196980D01*
Y197636D01*
X375066Y198292D01*
X375722D01*
X376378Y197636D01*
Y196324D01*
X375722Y195668D01*
X373098Y199604D02*
X372442Y200260D01*
Y201572D01*
X373098Y202228D01*
X375722D01*
X376378Y201572D01*
Y200260D01*
X375722Y199604D01*
X373098D01*
X42520Y38189D02*
Y42125D01*
X44488D01*
X45143Y41469D01*
Y40157D01*
X44488Y39501D01*
X42520D01*
X46455Y42125D02*
Y38189D01*
X47767Y39501D01*
X49079Y38189D01*
Y42125D01*
X50391Y38189D02*
Y42125D01*
X52359D01*
X53015Y41469D01*
Y40157D01*
X52359Y39501D01*
X50391D01*
X51703D02*
X53015Y38189D01*
X56951Y41469D02*
X56295Y42125D01*
X54983D01*
X54327Y41469D01*
Y38845D01*
X54983Y38189D01*
X56295D01*
X56951Y38845D01*
Y40157D01*
X55639D01*
X60887Y41469D02*
X60230Y42125D01*
X58919D01*
X58263Y41469D01*
Y40813D01*
X58919Y40157D01*
X60230D01*
X60887Y39501D01*
Y38845D01*
X60230Y38189D01*
X58919D01*
X58263Y38845D01*
X62198Y38189D02*
Y42125D01*
X63510Y40813D01*
X64822Y42125D01*
Y38189D01*
X37795Y32283D02*
Y36219D01*
X39763D01*
X40419Y35563D01*
Y34251D01*
X39763Y33595D01*
X37795D01*
X41731Y32283D02*
X43043D01*
X42387D01*
Y36219D01*
X41731Y35563D01*
X47635Y36219D02*
X45011D01*
Y34251D01*
X46323Y34907D01*
X46979D01*
X47635Y34251D01*
Y32939D01*
X46979Y32283D01*
X45667D01*
X45011Y32939D01*
X249013Y244220D02*
Y240940D01*
X249669Y240284D01*
X250980D01*
X251637Y240940D01*
Y244220D01*
X252948Y240940D02*
X253604Y240284D01*
X254916D01*
X255572Y240940D01*
Y243564D01*
X254916Y244220D01*
X253604D01*
X252948Y243564D01*
Y242908D01*
X253604Y242252D01*
X255572D01*
X284233Y229007D02*
Y232943D01*
X286201D01*
X286857Y232287D01*
Y230975D01*
X286201Y230319D01*
X284233D01*
X285545D02*
X286857Y229007D01*
X288169Y232287D02*
X288825Y232943D01*
X290137D01*
X290793Y232287D01*
Y231631D01*
X290137Y230975D01*
X289481D01*
X290137D01*
X290793Y230319D01*
Y229663D01*
X290137Y229007D01*
X288825D01*
X288169Y229663D01*
X294073Y229007D02*
Y232943D01*
X292105Y230975D01*
X294728D01*
X420472Y149605D02*
Y148949D01*
X421784Y147637D01*
X423096Y148949D01*
Y149605D01*
X421784Y147637D02*
Y145669D01*
X424408D02*
X425720D01*
X425064D01*
Y149605D01*
X424408Y148949D01*
X207181Y243679D02*
Y240399D01*
X207837Y239743D01*
X209149D01*
X209805Y240399D01*
Y243679D01*
X211117Y239743D02*
X212429D01*
X211773D01*
Y243679D01*
X211117Y243023D01*
X214397D02*
X215053Y243679D01*
X216365D01*
X217021Y243023D01*
Y240399D01*
X216365Y239743D01*
X215053D01*
X214397Y240399D01*
Y243023D01*
X417975Y70711D02*
Y67431D01*
X418631Y66775D01*
X419943D01*
X420599Y67431D01*
Y70711D01*
X421911Y70055D02*
X422567Y70711D01*
X423878D01*
X424534Y70055D01*
Y69399D01*
X423878Y68743D01*
X424534Y68087D01*
Y67431D01*
X423878Y66775D01*
X422567D01*
X421911Y67431D01*
Y68087D01*
X422567Y68743D01*
X421911Y69399D01*
Y70055D01*
X422567Y68743D02*
X423878D01*
X350007Y155348D02*
Y152068D01*
X350663Y151412D01*
X351975D01*
X352631Y152068D01*
Y155348D01*
X353943D02*
X356567D01*
Y154692D01*
X353943Y152068D01*
Y151412D01*
X49213Y166534D02*
Y163254D01*
X49869Y162598D01*
X51180D01*
X51836Y163254D01*
Y166534D01*
X55772D02*
X54460Y165878D01*
X53148Y164566D01*
Y163254D01*
X53804Y162598D01*
X55116D01*
X55772Y163254D01*
Y163910D01*
X55116Y164566D01*
X53148D01*
X321820Y75627D02*
Y72347D01*
X322477Y71691D01*
X323788D01*
X324444Y72347D01*
Y75627D01*
X328380D02*
X325756D01*
Y73659D01*
X327068Y74315D01*
X327724D01*
X328380Y73659D01*
Y72347D01*
X327724Y71691D01*
X326412D01*
X325756Y72347D01*
X49562Y206413D02*
Y203133D01*
X50218Y202477D01*
X51530D01*
X52186Y203133D01*
Y206413D01*
X55466Y202477D02*
Y206413D01*
X53498Y204445D01*
X56122D01*
X206299Y163385D02*
Y160105D01*
X206955Y159449D01*
X208267D01*
X208923Y160105D01*
Y163385D01*
X210235Y162729D02*
X210891Y163385D01*
X212203D01*
X212859Y162729D01*
Y162073D01*
X212203Y161417D01*
X211547D01*
X212203D01*
X212859Y160761D01*
Y160105D01*
X212203Y159449D01*
X210891D01*
X210235Y160105D01*
X111417Y263385D02*
Y260105D01*
X112073Y259449D01*
X113385D01*
X114041Y260105D01*
Y263385D01*
X117977Y259449D02*
X115353D01*
X117977Y262073D01*
Y262729D01*
X117321Y263385D01*
X116009D01*
X115353Y262729D01*
X109450Y203150D02*
X112730D01*
X113386Y203806D01*
Y205118D01*
X112730Y205773D01*
X109450D01*
X113386Y207085D02*
Y208397D01*
Y207741D01*
X109450D01*
X110106Y207085D01*
X233071Y77558D02*
X235695D01*
X234383D01*
Y73622D01*
X237007Y77558D02*
Y74934D01*
X238318Y73622D01*
X239630Y74934D01*
Y77558D01*
X243566Y76902D02*
X242910Y77558D01*
X241598D01*
X240942Y76902D01*
Y76246D01*
X241598Y75590D01*
X242910D01*
X243566Y74934D01*
Y74278D01*
X242910Y73622D01*
X241598D01*
X240942Y74278D01*
X244878Y73622D02*
X246190D01*
X245534D01*
Y77558D01*
X244878Y76902D01*
X14158Y309143D02*
X16782D01*
X15470D01*
Y305207D01*
X18094D02*
Y309143D01*
X20062D01*
X20718Y308487D01*
Y307175D01*
X20062Y306519D01*
X18094D01*
X22030Y305207D02*
X23342D01*
X22686D01*
Y309143D01*
X22030Y308487D01*
X42611Y312019D02*
X41955Y312675D01*
X40643D01*
X39987Y312019D01*
Y311363D01*
X40643Y310707D01*
X41955D01*
X42611Y310051D01*
Y309395D01*
X41955Y308739D01*
X40643D01*
X39987Y309395D01*
X43923Y312675D02*
Y308739D01*
X45235Y310051D01*
X46547Y308739D01*
Y312675D01*
X50483Y308739D02*
X47859D01*
X50483Y311363D01*
Y312019D01*
X49827Y312675D01*
X48515D01*
X47859Y312019D01*
X46468Y261265D02*
X45812Y261921D01*
X44500D01*
X43844Y261265D01*
Y260609D01*
X44500Y259953D01*
X45812D01*
X46468Y259297D01*
Y258641D01*
X45812Y257985D01*
X44500D01*
X43844Y258641D01*
X47780Y261921D02*
Y257985D01*
X49092Y259297D01*
X50404Y257985D01*
Y261921D01*
X51716Y257985D02*
X53027D01*
X52372D01*
Y261921D01*
X51716Y261265D01*
X292520Y170866D02*
Y174802D01*
X294488D01*
X295144Y174146D01*
Y172834D01*
X294488Y172178D01*
X292520D01*
X293832D02*
X295144Y170866D01*
X296455Y174146D02*
X297111Y174802D01*
X298423D01*
X299079Y174146D01*
Y173490D01*
X298423Y172834D01*
X297767D01*
X298423D01*
X299079Y172178D01*
Y171522D01*
X298423Y170866D01*
X297111D01*
X296455Y171522D01*
X303015Y170866D02*
X300391D01*
X303015Y173490D01*
Y174146D01*
X302359Y174802D01*
X301047D01*
X300391Y174146D01*
X386439Y66025D02*
Y69961D01*
X388406D01*
X389062Y69305D01*
Y67993D01*
X388406Y67337D01*
X386439D01*
X387751D02*
X389062Y66025D01*
X392998D02*
X390374D01*
X392998Y68649D01*
Y69305D01*
X392342Y69961D01*
X391030D01*
X390374Y69305D01*
X394310Y66681D02*
X394966Y66025D01*
X396278D01*
X396934Y66681D01*
Y69305D01*
X396278Y69961D01*
X394966D01*
X394310Y69305D01*
Y68649D01*
X394966Y67993D01*
X396934D01*
X394488Y32283D02*
Y36219D01*
X396456D01*
X397112Y35563D01*
Y34251D01*
X396456Y33595D01*
X394488D01*
X395800D02*
X397112Y32283D01*
X401048D02*
X398424D01*
X401048Y34907D01*
Y35563D01*
X400392Y36219D01*
X399080D01*
X398424Y35563D01*
X402360D02*
X403016Y36219D01*
X404327D01*
X404984Y35563D01*
Y34907D01*
X404327Y34251D01*
X404984Y33595D01*
Y32939D01*
X404327Y32283D01*
X403016D01*
X402360Y32939D01*
Y33595D01*
X403016Y34251D01*
X402360Y34907D01*
Y35563D01*
X403016Y34251D02*
X404327D01*
X429921Y94095D02*
X425985D01*
Y96062D01*
X426642Y96718D01*
X427953D01*
X428609Y96062D01*
Y94095D01*
Y95406D02*
X429921Y96718D01*
Y100654D02*
Y98030D01*
X427297Y100654D01*
X426642D01*
X425985Y99998D01*
Y98686D01*
X426642Y98030D01*
X425985Y101966D02*
Y104590D01*
X426642D01*
X429265Y101966D01*
X429921D01*
X414961Y92913D02*
X411025D01*
Y94881D01*
X411681Y95537D01*
X412993D01*
X413649Y94881D01*
Y92913D01*
Y94225D02*
X414961Y95537D01*
Y99473D02*
Y96849D01*
X412337Y99473D01*
X411681D01*
X411025Y98817D01*
Y97505D01*
X411681Y96849D01*
X411025Y103409D02*
X411681Y102097D01*
X412993Y100785D01*
X414305D01*
X414961Y101441D01*
Y102753D01*
X414305Y103409D01*
X413649D01*
X412993Y102753D01*
Y100785D01*
X417421Y172441D02*
X413485D01*
Y174409D01*
X414142Y175065D01*
X415453D01*
X416109Y174409D01*
Y172441D01*
Y173753D02*
X417421Y175065D01*
Y179000D02*
Y176377D01*
X414797Y179000D01*
X414142D01*
X413485Y178345D01*
Y177033D01*
X414142Y176377D01*
X413485Y182936D02*
Y180312D01*
X415453D01*
X414797Y181624D01*
Y182280D01*
X415453Y182936D01*
X416765D01*
X417421Y182280D01*
Y180968D01*
X416765Y180312D01*
X426772Y172441D02*
X422836D01*
Y174409D01*
X423492Y175065D01*
X424804D01*
X425460Y174409D01*
Y172441D01*
Y173753D02*
X426772Y175065D01*
Y179000D02*
Y176377D01*
X424148Y179000D01*
X423492D01*
X422836Y178345D01*
Y177033D01*
X423492Y176377D01*
X426772Y182280D02*
X422836D01*
X424804Y180312D01*
Y182936D01*
X291732Y153150D02*
Y157085D01*
X293700D01*
X294356Y156429D01*
Y155117D01*
X293700Y154462D01*
X291732D01*
X293044D02*
X294356Y153150D01*
X298292D02*
X295668D01*
X298292Y155773D01*
Y156429D01*
X297636Y157085D01*
X296324D01*
X295668Y156429D01*
X299604D02*
X300260Y157085D01*
X301572D01*
X302228Y156429D01*
Y155773D01*
X301572Y155117D01*
X300916D01*
X301572D01*
X302228Y154462D01*
Y153806D01*
X301572Y153150D01*
X300260D01*
X299604Y153806D01*
X292913Y161811D02*
Y165747D01*
X294881D01*
X295537Y165091D01*
Y163779D01*
X294881Y163123D01*
X292913D01*
X294225D02*
X295537Y161811D01*
X299473D02*
X296849D01*
X299473Y164435D01*
Y165091D01*
X298817Y165747D01*
X297505D01*
X296849Y165091D01*
X303409Y161811D02*
X300785D01*
X303409Y164435D01*
Y165091D01*
X302753Y165747D01*
X301441D01*
X300785Y165091D01*
X232677Y167717D02*
X236613D01*
Y165749D01*
X235957Y165093D01*
X234645D01*
X233989Y165749D01*
Y167717D01*
Y166405D02*
X232677Y165093D01*
Y161157D02*
Y163781D01*
X235301Y161157D01*
X235957D01*
X236613Y161813D01*
Y163125D01*
X235957Y163781D01*
X232677Y159845D02*
Y158533D01*
Y159189D01*
X236613D01*
X235957Y159845D01*
X291732Y142520D02*
Y146455D01*
X293700D01*
X294356Y145800D01*
Y144488D01*
X293700Y143832D01*
X291732D01*
X293044D02*
X294356Y142520D01*
X298292D02*
X295668D01*
X298292Y145143D01*
Y145800D01*
X297636Y146455D01*
X296324D01*
X295668Y145800D01*
X299604D02*
X300260Y146455D01*
X301572D01*
X302228Y145800D01*
Y143176D01*
X301572Y142520D01*
X300260D01*
X299604Y143176D01*
Y145800D01*
X407677Y171653D02*
X403741D01*
Y173621D01*
X404397Y174277D01*
X405709D01*
X406365Y173621D01*
Y171653D01*
Y172966D02*
X407677Y174277D01*
Y175589D02*
Y176901D01*
Y176245D01*
X403741D01*
X404397Y175589D01*
X407021Y178869D02*
X407677Y179525D01*
Y180837D01*
X407021Y181493D01*
X404397D01*
X403741Y180837D01*
Y179525D01*
X404397Y178869D01*
X405053D01*
X405709Y179525D01*
Y181493D01*
X292126Y132283D02*
Y136219D01*
X294094D01*
X294750Y135563D01*
Y134251D01*
X294094Y133595D01*
X292126D01*
X293438D02*
X294750Y132283D01*
X296062D02*
X297374D01*
X296718D01*
Y136219D01*
X296062Y135563D01*
X299342D02*
X299997Y136219D01*
X301309D01*
X301965Y135563D01*
Y134907D01*
X301309Y134251D01*
X301965Y133595D01*
Y132939D01*
X301309Y132283D01*
X299997D01*
X299342Y132939D01*
Y133595D01*
X299997Y134251D01*
X299342Y134907D01*
Y135563D01*
X299997Y134251D02*
X301309D01*
X307087Y61811D02*
Y65747D01*
X309054D01*
X309710Y65091D01*
Y63779D01*
X309054Y63123D01*
X307087D01*
X308399D02*
X309710Y61811D01*
X311022D02*
X312334D01*
X311678D01*
Y65747D01*
X311022Y65091D01*
X314302Y65747D02*
X316926D01*
Y65091D01*
X314302Y62467D01*
Y61811D01*
X362598Y58268D02*
Y62204D01*
X364566D01*
X365222Y61547D01*
Y60236D01*
X364566Y59580D01*
X362598D01*
X363910D02*
X365222Y58268D01*
X366534D02*
X367846D01*
X367190D01*
Y62204D01*
X366534Y61547D01*
X372438Y62204D02*
X371126Y61547D01*
X369814Y60236D01*
Y58924D01*
X370470Y58268D01*
X371782D01*
X372438Y58924D01*
Y59580D01*
X371782Y60236D01*
X369814D01*
X397933Y172441D02*
X393997D01*
Y174409D01*
X394653Y175065D01*
X395965D01*
X396621Y174409D01*
Y172441D01*
Y173753D02*
X397933Y175065D01*
Y176377D02*
Y177689D01*
Y177033D01*
X393997D01*
X394653Y176377D01*
X393997Y182280D02*
Y179657D01*
X395965D01*
X395309Y180968D01*
Y181624D01*
X395965Y182280D01*
X397277D01*
X397933Y181624D01*
Y180312D01*
X397277Y179657D01*
X354331Y42520D02*
Y46455D01*
X356299D01*
X356955Y45799D01*
Y44488D01*
X356299Y43832D01*
X354331D01*
X355643D02*
X356955Y42520D01*
X358266D02*
X359578D01*
X358922D01*
Y46455D01*
X358266Y45799D01*
X363514Y42520D02*
Y46455D01*
X361546Y44488D01*
X364170D01*
X294094Y70079D02*
Y74015D01*
X296062D01*
X296718Y73359D01*
Y72047D01*
X296062Y71391D01*
X294094D01*
X295406D02*
X296718Y70079D01*
X298030D02*
X299342D01*
X298686D01*
Y74015D01*
X298030Y73359D01*
X301310D02*
X301966Y74015D01*
X303278D01*
X303934Y73359D01*
Y72703D01*
X303278Y72047D01*
X302622D01*
X303278D01*
X303934Y71391D01*
Y70735D01*
X303278Y70079D01*
X301966D01*
X301310Y70735D01*
X389370Y172835D02*
X385434D01*
Y174802D01*
X386090Y175459D01*
X387402D01*
X388058Y174802D01*
Y172835D01*
Y174147D02*
X389370Y175459D01*
Y176770D02*
Y178082D01*
Y177426D01*
X385434D01*
X386090Y176770D01*
X389370Y182674D02*
Y180050D01*
X386746Y182674D01*
X386090D01*
X385434Y182018D01*
Y180706D01*
X386090Y180050D01*
X442224Y159026D02*
Y162962D01*
X444192D01*
X444848Y162306D01*
Y160994D01*
X444192Y160338D01*
X442224D01*
X443536D02*
X444848Y159026D01*
X446160D02*
X447472D01*
X446816D01*
Y162962D01*
X446160Y162306D01*
X449440Y159026D02*
X450752D01*
X450096D01*
Y162962D01*
X449440Y162306D01*
X90158Y233071D02*
Y237007D01*
X92125D01*
X92781Y236351D01*
Y235039D01*
X92125Y234383D01*
X90158D01*
X91469D02*
X92781Y233071D01*
X94093D02*
X95405D01*
X94749D01*
Y237007D01*
X94093Y236351D01*
X97373D02*
X98029Y237007D01*
X99341D01*
X99997Y236351D01*
Y233727D01*
X99341Y233071D01*
X98029D01*
X97373Y233727D01*
Y236351D01*
X90551Y224803D02*
Y228739D01*
X92519D01*
X93175Y228083D01*
Y226771D01*
X92519Y226115D01*
X90551D01*
X91863D02*
X93175Y224803D01*
X94487Y225459D02*
X95143Y224803D01*
X96455D01*
X97111Y225459D01*
Y228083D01*
X96455Y228739D01*
X95143D01*
X94487Y228083D01*
Y227427D01*
X95143Y226771D01*
X97111D01*
X120595Y236199D02*
Y240135D01*
X122563D01*
X123219Y239479D01*
Y238167D01*
X122563Y237511D01*
X120595D01*
X121907D02*
X123219Y236199D01*
X124531Y239479D02*
X125187Y240135D01*
X126499D01*
X127155Y239479D01*
Y238823D01*
X126499Y238167D01*
X127155Y237511D01*
Y236855D01*
X126499Y236199D01*
X125187D01*
X124531Y236855D01*
Y237511D01*
X125187Y238167D01*
X124531Y238823D01*
Y239479D01*
X125187Y238167D02*
X126499D01*
X174803Y260630D02*
Y264566D01*
X176771D01*
X177427Y263910D01*
Y262598D01*
X176771Y261942D01*
X174803D01*
X176115D02*
X177427Y260630D01*
X178739Y264566D02*
X181363D01*
Y263910D01*
X178739Y261286D01*
Y260630D01*
X147638Y236614D02*
Y240550D01*
X149606D01*
X150262Y239894D01*
Y238582D01*
X149606Y237926D01*
X147638D01*
X148950D02*
X150262Y236614D01*
X154197Y240550D02*
X151574D01*
Y238582D01*
X152885Y239238D01*
X153541D01*
X154197Y238582D01*
Y237270D01*
X153541Y236614D01*
X152229D01*
X151574Y237270D01*
X161562Y253119D02*
Y257055D01*
X163530D01*
X164186Y256399D01*
Y255087D01*
X163530Y254431D01*
X161562D01*
X162874D02*
X164186Y253119D01*
X165498Y256399D02*
X166154Y257055D01*
X167466D01*
X168122Y256399D01*
Y255743D01*
X167466Y255087D01*
X166810D01*
X167466D01*
X168122Y254431D01*
Y253775D01*
X167466Y253119D01*
X166154D01*
X165498Y253775D01*
X247112Y179790D02*
Y182414D01*
X246456Y183070D01*
X245144D01*
X244488Y182414D01*
Y179790D01*
X245144Y179134D01*
X246456D01*
X245800Y180446D02*
X247112Y179134D01*
X246456D02*
X247112Y179790D01*
X250392Y179134D02*
Y183070D01*
X248424Y181102D01*
X251048D01*
X247899Y165223D02*
Y167847D01*
X247243Y168503D01*
X245932D01*
X245276Y167847D01*
Y165223D01*
X245932Y164567D01*
X247243D01*
X246587Y165879D02*
X247899Y164567D01*
X247243D02*
X247899Y165223D01*
X249211Y167847D02*
X249867Y168503D01*
X251179D01*
X251835Y167847D01*
Y167191D01*
X251179Y166535D01*
X250523D01*
X251179D01*
X251835Y165879D01*
Y165223D01*
X251179Y164567D01*
X249867D01*
X249211Y165223D01*
X139632Y262467D02*
Y265091D01*
X138976Y265747D01*
X137664D01*
X137008Y265091D01*
Y262467D01*
X137664Y261811D01*
X138976D01*
X138320Y263123D02*
X139632Y261811D01*
X138976D02*
X139632Y262467D01*
X143567Y261811D02*
X140944D01*
X143567Y264435D01*
Y265091D01*
X142912Y265747D01*
X141600D01*
X140944Y265091D01*
X153411Y217979D02*
Y220603D01*
X152755Y221259D01*
X151443D01*
X150787Y220603D01*
Y217979D01*
X151443Y217323D01*
X152755D01*
X152099Y218635D02*
X153411Y217323D01*
X152755D02*
X153411Y217979D01*
X154723Y217323D02*
X156035D01*
X155379D01*
Y221259D01*
X154723Y220603D01*
X32283Y64567D02*
X36219D01*
X34907Y63255D01*
X36219Y61943D01*
X32283D01*
Y58663D02*
Y59975D01*
X32939Y60631D01*
X34251D01*
X34907Y59975D01*
Y58663D01*
X34251Y58007D01*
X33595D01*
Y60631D01*
X36219Y54072D02*
X32283D01*
Y56040D01*
X32939Y56695D01*
X34251D01*
X34907Y56040D01*
Y54072D01*
X32283Y52760D02*
Y51448D01*
Y52104D01*
X34907D01*
Y52760D01*
Y48824D02*
Y47512D01*
X34251Y46856D01*
X32283D01*
Y48824D01*
X32939Y49480D01*
X33595Y48824D01*
Y46856D01*
X35563Y42920D02*
X36219Y43576D01*
Y44888D01*
X35563Y45544D01*
X32939D01*
X32283Y44888D01*
Y43576D01*
X32939Y42920D01*
X32283Y40953D02*
Y39641D01*
X32939Y38985D01*
X34251D01*
X34907Y39641D01*
Y40953D01*
X34251Y41608D01*
X32939D01*
X32283Y40953D01*
Y37673D02*
X34907D01*
Y35705D01*
X34251Y35049D01*
X32283D01*
X34907Y33737D02*
X32283Y32425D01*
X34907Y31113D01*
X31890Y68110D02*
Y72046D01*
X33858D01*
X34514Y71390D01*
Y70078D01*
X33858Y69422D01*
X31890D01*
X35825Y68110D02*
X37137D01*
X36481D01*
Y72046D01*
X35825Y71390D01*
X41073Y68110D02*
Y72046D01*
X39105Y70078D01*
X41729D01*
X211024Y44487D02*
Y40551D01*
X212991D01*
X213647Y41207D01*
Y41863D01*
X212991Y42519D01*
X211024D01*
X212991D01*
X213647Y43175D01*
Y43831D01*
X212991Y44487D01*
X211024D01*
X214959Y40551D02*
Y43175D01*
X216271Y44487D01*
X217583Y43175D01*
Y40551D01*
Y42519D01*
X214959D01*
X218895Y44487D02*
X221519D01*
X220207D01*
Y40551D01*
X201969Y33465D02*
Y37400D01*
X203936D01*
X204592Y36744D01*
Y35432D01*
X203936Y34776D01*
X201969D01*
X205904Y33465D02*
X207216D01*
X206560D01*
Y37400D01*
X205904Y36744D01*
X209184D02*
X209840Y37400D01*
X211152D01*
X211808Y36744D01*
Y36088D01*
X211152Y35432D01*
X210496D01*
X211152D01*
X211808Y34776D01*
Y34121D01*
X211152Y33465D01*
X209840D01*
X209184Y34121D01*
X462756Y235039D02*
X466692D01*
Y233071D01*
X466036Y232416D01*
X464724D01*
X464068Y233071D01*
Y235039D01*
X462756Y231104D02*
Y229792D01*
Y230448D01*
X466692D01*
X466036Y231104D01*
Y227824D02*
X466692Y227168D01*
Y225856D01*
X466036Y225200D01*
X463412D01*
X462756Y225856D01*
Y227168D01*
X463412Y227824D01*
X466036D01*
X38583Y202362D02*
X41206D01*
X42518Y201050D01*
X41206Y199738D01*
X38583D01*
X40551D01*
Y202362D01*
X42518Y198426D02*
X39239D01*
X38583Y197771D01*
Y196459D01*
X39239Y195803D01*
X42518D01*
Y194491D02*
X38583Y191867D01*
X42518D02*
X38583Y194491D01*
X31890Y205906D02*
Y209841D01*
X33858D01*
X34514Y209185D01*
Y207873D01*
X33858Y207217D01*
X31890D01*
X35825Y206561D02*
X36481Y205906D01*
X37793D01*
X38449Y206561D01*
Y209185D01*
X37793Y209841D01*
X36481D01*
X35825Y209185D01*
Y208529D01*
X36481Y207873D01*
X38449D01*
X43699Y165486D02*
X39764D01*
Y167454D01*
X40420Y168110D01*
X41732D01*
X42388Y167454D01*
Y165486D01*
X39764Y163519D02*
Y162207D01*
X40420Y161551D01*
X41732D01*
X42388Y162207D01*
Y163519D01*
X41732Y164174D01*
X40420D01*
X39764Y163519D01*
Y159583D02*
Y158271D01*
X40420Y157615D01*
X41732D01*
X42388Y158271D01*
Y159583D01*
X41732Y160239D01*
X40420D01*
X39764Y159583D01*
X42388Y156303D02*
X39764D01*
X41076D01*
X41732Y155647D01*
X42388Y154991D01*
Y154335D01*
X32677Y171260D02*
Y175196D01*
X34645D01*
X35301Y174540D01*
Y173228D01*
X34645Y172572D01*
X32677D01*
X36613Y174540D02*
X37269Y175196D01*
X38581D01*
X39237Y174540D01*
Y173884D01*
X38581Y173228D01*
X39237Y172572D01*
Y171916D01*
X38581Y171260D01*
X37269D01*
X36613Y171916D01*
Y172572D01*
X37269Y173228D01*
X36613Y173884D01*
Y174540D01*
X37269Y173228D02*
X38581D01*
X84646Y42912D02*
Y38976D01*
X86614D01*
X87270Y39632D01*
Y40288D01*
X86614Y40944D01*
X84646D01*
X86614D01*
X87270Y41600D01*
Y42256D01*
X86614Y42912D01*
X84646D01*
X88581D02*
X91205D01*
X89893D01*
Y38976D01*
X92517D02*
Y42912D01*
X95141Y38976D01*
Y42912D01*
X96453Y38976D02*
X99077Y41600D01*
X100389Y42912D02*
Y38976D01*
X103012D01*
X106948Y42912D02*
X104324D01*
Y38976D01*
X106948D01*
X104324Y40944D02*
X105636D01*
X108260Y42912D02*
Y38976D01*
X110228D01*
X110884Y39632D01*
Y42256D01*
X110228Y42912D01*
X108260D01*
X71575Y33275D02*
Y37211D01*
X73543D01*
X74199Y36555D01*
Y35243D01*
X73543Y34587D01*
X71575D01*
X75511Y37211D02*
X78134D01*
Y36555D01*
X75511Y33931D01*
Y33275D01*
X44093Y96851D02*
Y98163D01*
X43437Y98819D01*
X40813D01*
X40157Y98163D01*
Y96851D01*
X40813Y96195D01*
X43437D01*
X44093Y96851D01*
Y94883D02*
X40813D01*
X40157Y94227D01*
Y92915D01*
X40813Y92259D01*
X44093D01*
Y90947D02*
Y88324D01*
Y89635D01*
X40157D01*
Y84388D02*
Y87012D01*
X42781Y84388D01*
X43437D01*
X44093Y85044D01*
Y86356D01*
X43437Y87012D01*
X31890Y103150D02*
Y107085D01*
X33858D01*
X34514Y106429D01*
Y105117D01*
X33858Y104462D01*
X31890D01*
X38449Y107085D02*
X37137Y106429D01*
X35825Y105117D01*
Y103806D01*
X36481Y103150D01*
X37793D01*
X38449Y103806D01*
Y104462D01*
X37793Y105117D01*
X35825D01*
X234252Y39370D02*
Y43306D01*
X236220D01*
X236876Y42650D01*
Y41338D01*
X236220Y40682D01*
X234252D01*
X238188Y43306D02*
Y40682D01*
X239500Y39370D01*
X240811Y40682D01*
Y43306D01*
X235975Y33175D02*
Y37111D01*
X237943D01*
X238599Y36455D01*
Y35143D01*
X237943Y34487D01*
X235975D01*
X242534Y37111D02*
X239911D01*
Y35143D01*
X241223Y35799D01*
X241879D01*
X242534Y35143D01*
Y33831D01*
X241879Y33175D01*
X240567D01*
X239911Y33831D01*
X45274Y131497D02*
Y132809D01*
X44618Y133465D01*
X41995D01*
X41339Y132809D01*
Y131497D01*
X41995Y130841D01*
X44618D01*
X45274Y131497D01*
Y129529D02*
X41995D01*
X41339Y128873D01*
Y127561D01*
X41995Y126905D01*
X45274D01*
Y125593D02*
Y122969D01*
Y124281D01*
X41339D01*
Y121657D02*
Y120345D01*
Y121001D01*
X45274D01*
X44618Y121657D01*
X31496Y136614D02*
Y140550D01*
X33464D01*
X34120Y139894D01*
Y138582D01*
X33464Y137926D01*
X31496D01*
X37400Y136614D02*
Y140550D01*
X35432Y138582D01*
X38056D01*
X33071Y238976D02*
X37007D01*
X35695Y237665D01*
X37007Y236353D01*
X33071D01*
X37007Y235041D02*
Y233729D01*
Y234385D01*
X33071D01*
Y235041D01*
Y233729D01*
X36351Y229137D02*
X37007Y229793D01*
Y231105D01*
X36351Y231761D01*
X33727D01*
X33071Y231105D01*
Y229793D01*
X33727Y229137D01*
X32415Y227825D02*
Y225201D01*
X37007Y221921D02*
Y223233D01*
X36351Y223889D01*
X33727D01*
X33071Y223233D01*
Y221921D01*
X33727Y221266D01*
X36351D01*
X37007Y221921D01*
X33071Y219954D02*
X37007D01*
Y217986D01*
X36351Y217330D01*
X35039D01*
X34383Y217986D01*
Y219954D01*
X33071Y216018D02*
Y214706D01*
Y215362D01*
X35695D01*
Y216018D01*
X33071Y241339D02*
Y245274D01*
X35039D01*
X35695Y244618D01*
Y243306D01*
X35039Y242651D01*
X33071D01*
X37007Y244618D02*
X37663Y245274D01*
X38974D01*
X39630Y244618D01*
Y243962D01*
X38974Y243306D01*
X38318D01*
X38974D01*
X39630Y242651D01*
Y241995D01*
X38974Y241339D01*
X37663D01*
X37007Y241995D01*
X169291Y40551D02*
Y44487D01*
X170603Y43175D01*
X171915Y44487D01*
Y40551D01*
X173227Y44487D02*
X174539D01*
X173883D01*
Y40551D01*
X173227D01*
X174539D01*
X179131Y43831D02*
X178475Y44487D01*
X177163D01*
X176507Y43831D01*
Y41207D01*
X177163Y40551D01*
X178475D01*
X179131Y41207D01*
X167475Y33175D02*
Y37111D01*
X169443D01*
X170099Y36455D01*
Y35143D01*
X169443Y34487D01*
X167475D01*
X174034Y33175D02*
X171411D01*
X174034Y35799D01*
Y36455D01*
X173379Y37111D01*
X172067D01*
X171411Y36455D01*
X140025Y43437D02*
X139369Y44093D01*
X138057D01*
X137402Y43437D01*
Y42781D01*
X138057Y42125D01*
X139369D01*
X140025Y41469D01*
Y40813D01*
X139369Y40157D01*
X138057D01*
X137402Y40813D01*
X141337Y40157D02*
Y44093D01*
X143305D01*
X143961Y43437D01*
Y42125D01*
X143305Y41469D01*
X141337D01*
X145273Y44093D02*
Y40157D01*
Y41469D01*
X147897Y44093D01*
X145929Y42125D01*
X147897Y40157D01*
X133175Y33175D02*
Y37111D01*
X135143D01*
X135799Y36455D01*
Y35143D01*
X135143Y34487D01*
X133175D01*
X137111Y33175D02*
X138423D01*
X137767D01*
Y37111D01*
X137111Y36455D01*
X237795Y157873D02*
Y153937D01*
X240419D01*
X244355Y157873D02*
X241731D01*
Y153937D01*
X244355D01*
X241731Y155905D02*
X243043D01*
X245667Y157873D02*
Y153937D01*
X247635D01*
X248291Y154593D01*
Y157217D01*
X247635Y157873D01*
X245667D01*
X249603Y157217D02*
X250258Y157873D01*
X251570D01*
X252226Y157217D01*
Y156561D01*
X251570Y155905D01*
X250914D01*
X251570D01*
X252226Y155249D01*
Y154593D01*
X251570Y153937D01*
X250258D01*
X249603Y154593D01*
X237795Y147243D02*
Y143307D01*
X240419D01*
X244355Y147243D02*
X241731D01*
Y143307D01*
X244355D01*
X241731Y145275D02*
X243043D01*
X245667Y147243D02*
Y143307D01*
X247635D01*
X248291Y143963D01*
Y146587D01*
X247635Y147243D01*
X245667D01*
X252226Y143307D02*
X249603D01*
X252226Y145931D01*
Y146587D01*
X251570Y147243D01*
X250258D01*
X249603Y146587D01*
X238976Y135432D02*
Y131496D01*
X241600D01*
X245536Y135432D02*
X242912D01*
Y131496D01*
X245536D01*
X242912Y133464D02*
X244224D01*
X246848Y135432D02*
Y131496D01*
X248816D01*
X249472Y132152D01*
Y134776D01*
X248816Y135432D01*
X246848D01*
X250784Y131496D02*
X252096D01*
X251440D01*
Y135432D01*
X250784Y134776D01*
X236613Y185827D02*
X232677D01*
Y183203D01*
X235957Y181891D02*
X236613Y181235D01*
Y179923D01*
X235957Y179267D01*
X235301D01*
X234645Y179923D01*
X233989Y179267D01*
X233333D01*
X232677Y179923D01*
Y181235D01*
X233333Y181891D01*
X233989D01*
X234645Y181235D01*
X235301Y181891D01*
X235957D01*
X234645Y181235D02*
Y179923D01*
X125472Y156745D02*
Y152810D01*
X128095D01*
X129407Y156745D02*
X132031D01*
Y156089D01*
X129407Y153465D01*
Y152810D01*
X114095Y155438D02*
Y151502D01*
X116719D01*
X120655Y155438D02*
X119343Y154782D01*
X118031Y153470D01*
Y152158D01*
X118687Y151502D01*
X119999D01*
X120655Y152158D01*
Y152814D01*
X119999Y153470D01*
X118031D01*
X95276Y118109D02*
Y114173D01*
X97899D01*
X101835Y118109D02*
X99211D01*
Y116141D01*
X100523Y116797D01*
X101179D01*
X101835Y116141D01*
Y114829D01*
X101179Y114173D01*
X99867D01*
X99211Y114829D01*
X166835Y156270D02*
Y152334D01*
X169459D01*
X172739D02*
Y156270D01*
X170771Y154302D01*
X173395D01*
X142520Y119290D02*
Y115354D01*
X145143D01*
X146455Y118634D02*
X147111Y119290D01*
X148423D01*
X149079Y118634D01*
Y117978D01*
X148423Y117322D01*
X147767D01*
X148423D01*
X149079Y116666D01*
Y116010D01*
X148423Y115354D01*
X147111D01*
X146455Y116010D01*
X147584Y157926D02*
Y153991D01*
X150208D01*
X154144D02*
X151520D01*
X154144Y156614D01*
Y157270D01*
X153488Y157926D01*
X152176D01*
X151520Y157270D01*
X77506Y260999D02*
Y257063D01*
X80130D01*
X81442D02*
X82754D01*
X82098D01*
Y260999D01*
X81442Y260343D01*
X46918Y104748D02*
Y100812D01*
Y102124D01*
X49542Y104748D01*
X47574Y102780D01*
X49542Y100812D01*
X50854D02*
X52166D01*
X51510D01*
Y104748D01*
X50854Y104092D01*
X129789Y322046D02*
X128477D01*
X129133D01*
Y318766D01*
X128477Y318110D01*
X127821D01*
X127165Y318766D01*
X133725Y318110D02*
X131101D01*
X133725Y320734D01*
Y321390D01*
X133069Y322046D01*
X131757D01*
X131101Y321390D01*
X81364Y298818D02*
X80052D01*
X80708D01*
Y295538D01*
X80052Y294882D01*
X79396D01*
X78740Y295538D01*
X82676Y294882D02*
X83988D01*
X83332D01*
Y298818D01*
X82676Y298162D01*
X277953Y79133D02*
Y75197D01*
X279921D01*
X280577Y75853D01*
Y78477D01*
X279921Y79133D01*
X277953D01*
X284512Y75197D02*
X281889D01*
X284512Y77821D01*
Y78477D01*
X283856Y79133D01*
X282544D01*
X281889Y78477D01*
X58229Y118035D02*
Y114099D01*
X60197D01*
X60853Y114755D01*
Y117379D01*
X60197Y118035D01*
X58229D01*
X62165Y114099D02*
X63477D01*
X62821D01*
Y118035D01*
X62165Y117379D01*
X436484Y19553D02*
X435828Y18897D01*
Y17585D01*
X436484Y16929D01*
X439108D01*
X439764Y17585D01*
Y18897D01*
X439108Y19553D01*
X439764Y23489D02*
Y20865D01*
X437140Y23489D01*
X436484D01*
X435828Y22833D01*
Y21521D01*
X436484Y20865D01*
Y24801D02*
X435828Y25457D01*
Y26768D01*
X436484Y27424D01*
X437140D01*
X437796Y26768D01*
X438452Y27424D01*
X439108D01*
X439764Y26768D01*
Y25457D01*
X439108Y24801D01*
X438452D01*
X437796Y25457D01*
X437140Y24801D01*
X436484D01*
X437796Y25457D02*
Y26768D01*
X423098Y19553D02*
X422442Y18897D01*
Y17585D01*
X423098Y16929D01*
X425722D01*
X426378Y17585D01*
Y18897D01*
X425722Y19553D01*
X426378Y23489D02*
Y20865D01*
X423754Y23489D01*
X423098D01*
X422442Y22833D01*
Y21521D01*
X423098Y20865D01*
X422442Y24801D02*
Y27424D01*
X423098D01*
X425722Y24801D01*
X426378D01*
X375067Y64828D02*
X374411Y64173D01*
Y62861D01*
X375067Y62205D01*
X377691D01*
X378346Y62861D01*
Y64173D01*
X377691Y64828D01*
X378346Y68764D02*
Y66141D01*
X375723Y68764D01*
X375067D01*
X374411Y68108D01*
Y66796D01*
X375067Y66141D01*
X374411Y72700D02*
X375067Y71388D01*
X376379Y70076D01*
X377691D01*
X378346Y70732D01*
Y72044D01*
X377691Y72700D01*
X377034D01*
X376379Y72044D01*
Y70076D01*
X317191Y108398D02*
X316535Y109054D01*
X315223D01*
X314567Y108398D01*
Y105774D01*
X315223Y105118D01*
X316535D01*
X317191Y105774D01*
X321127Y105118D02*
X318503D01*
X321127Y107742D01*
Y108398D01*
X320470Y109054D01*
X319159D01*
X318503Y108398D01*
X325062Y109054D02*
X322438D01*
Y107086D01*
X323750Y107742D01*
X324406D01*
X325062Y107086D01*
Y105774D01*
X324406Y105118D01*
X323094D01*
X322438Y105774D01*
X431758Y117847D02*
X431102Y118503D01*
X429790D01*
X429134Y117847D01*
Y115223D01*
X429790Y114567D01*
X431102D01*
X431758Y115223D01*
X435693Y114567D02*
X433070D01*
X435693Y117191D01*
Y117847D01*
X435038Y118503D01*
X433726D01*
X433070Y117847D01*
X438973Y114567D02*
Y118503D01*
X437005Y116535D01*
X439629D01*
X317584Y123752D02*
X316929Y124408D01*
X315617D01*
X314961Y123752D01*
Y121128D01*
X315617Y120472D01*
X316929D01*
X317584Y121128D01*
X321520Y120472D02*
X318896D01*
X321520Y123096D01*
Y123752D01*
X320864Y124408D01*
X319552D01*
X318896Y123752D01*
X322832D02*
X323488Y124408D01*
X324800D01*
X325456Y123752D01*
Y123096D01*
X324800Y122440D01*
X324144D01*
X324800D01*
X325456Y121784D01*
Y121128D01*
X324800Y120472D01*
X323488D01*
X322832Y121128D01*
X374681Y176522D02*
X374025Y177178D01*
X372713D01*
X372057Y176522D01*
Y173898D01*
X372713Y173243D01*
X374025D01*
X374681Y173898D01*
X378616Y173243D02*
X375992D01*
X378616Y175866D01*
Y176522D01*
X377960Y177178D01*
X376648D01*
X375992Y176522D01*
X382552Y173243D02*
X379928D01*
X382552Y175866D01*
Y176522D01*
X381896Y177178D01*
X380584D01*
X379928Y176522D01*
X451049Y139894D02*
X450393Y140550D01*
X449081D01*
X448425Y139894D01*
Y137270D01*
X449081Y136614D01*
X450393D01*
X451049Y137270D01*
X454985Y136614D02*
X452361D01*
X454985Y139238D01*
Y139894D01*
X454329Y140550D01*
X453017D01*
X452361Y139894D01*
X456297Y136614D02*
X457609D01*
X456953D01*
Y140550D01*
X456297Y139894D01*
X451049Y130839D02*
X450393Y131495D01*
X449081D01*
X448425Y130839D01*
Y128215D01*
X449081Y127559D01*
X450393D01*
X451049Y128215D01*
X454985Y127559D02*
X452361D01*
X454985Y130183D01*
Y130839D01*
X454329Y131495D01*
X453017D01*
X452361Y130839D01*
X456297D02*
X456953Y131495D01*
X458264D01*
X458920Y130839D01*
Y128215D01*
X458264Y127559D01*
X456953D01*
X456297Y128215D01*
Y130839D01*
X427035Y78608D02*
X426379Y77952D01*
Y76640D01*
X427035Y75984D01*
X429659D01*
X430315Y76640D01*
Y77952D01*
X429659Y78608D01*
X430315Y79920D02*
Y81232D01*
Y80576D01*
X426379D01*
X427035Y79920D01*
X429659Y83200D02*
X430315Y83856D01*
Y85168D01*
X429659Y85824D01*
X427035D01*
X426379Y85168D01*
Y83856D01*
X427035Y83200D01*
X427691D01*
X428347Y83856D01*
Y85824D01*
X412075Y77427D02*
X411419Y76771D01*
Y75459D01*
X412075Y74803D01*
X414698D01*
X415354Y75459D01*
Y76771D01*
X414698Y77427D01*
X415354Y78739D02*
Y80051D01*
Y79395D01*
X411419D01*
X412075Y78739D01*
Y82019D02*
X411419Y82675D01*
Y83987D01*
X412075Y84642D01*
X412731D01*
X413386Y83987D01*
X414042Y84642D01*
X414698D01*
X415354Y83987D01*
Y82675D01*
X414698Y82019D01*
X414042D01*
X413386Y82675D01*
X412731Y82019D01*
X412075D01*
X413386Y82675D02*
Y83987D01*
X211681Y181758D02*
X211025Y181102D01*
Y179790D01*
X211681Y179134D01*
X214305D01*
X214961Y179790D01*
Y181102D01*
X214305Y181758D01*
X214961Y183070D02*
Y184381D01*
Y183726D01*
X211025D01*
X211681Y183070D01*
X211025Y186349D02*
Y188973D01*
X211681D01*
X214305Y186349D01*
X214961D01*
X197508Y181758D02*
X196852Y181102D01*
Y179790D01*
X197508Y179134D01*
X200131D01*
X200787Y179790D01*
Y181102D01*
X200131Y181758D01*
X200787Y183070D02*
Y184381D01*
Y183726D01*
X196852D01*
X197508Y183070D01*
X196852Y188973D02*
X197508Y187661D01*
X198819Y186349D01*
X200131D01*
X200787Y187005D01*
Y188317D01*
X200131Y188973D01*
X199476D01*
X198819Y188317D01*
Y186349D01*
X132870Y240585D02*
X132214Y241241D01*
X130902D01*
X130246Y240585D01*
Y237962D01*
X130902Y237305D01*
X132214D01*
X132870Y237962D01*
X134181Y237305D02*
X135493D01*
X134837D01*
Y241241D01*
X134181Y240585D01*
X140085Y241241D02*
X137461D01*
Y239273D01*
X138773Y239929D01*
X139429D01*
X140085Y239273D01*
Y237962D01*
X139429Y237305D01*
X138117D01*
X137461Y237962D01*
X127569Y174486D02*
X126914Y175142D01*
X125602D01*
X124946Y174486D01*
Y171862D01*
X125602Y171206D01*
X126914D01*
X127569Y171862D01*
X128882Y171206D02*
X130193D01*
X129537D01*
Y175142D01*
X128882Y174486D01*
X134129Y171206D02*
Y175142D01*
X132161Y173174D01*
X134785D01*
X121915Y66666D02*
X121259Y67322D01*
X119947D01*
X119291Y66666D01*
Y64042D01*
X119947Y63386D01*
X121259D01*
X121915Y64042D01*
X123227Y63386D02*
X124539D01*
X123883D01*
Y67322D01*
X123227Y66666D01*
X126507D02*
X127163Y67322D01*
X128475D01*
X129131Y66666D01*
Y66010D01*
X128475Y65354D01*
X127819D01*
X128475D01*
X129131Y64698D01*
Y64042D01*
X128475Y63386D01*
X127163D01*
X126507Y64042D01*
X191724Y261529D02*
X191068Y262185D01*
X189756D01*
X189100Y261529D01*
Y258905D01*
X189756Y258249D01*
X191068D01*
X191724Y258905D01*
X193036Y258249D02*
X194348D01*
X193692D01*
Y262185D01*
X193036Y261529D01*
X198939Y258249D02*
X196316D01*
X198939Y260873D01*
Y261529D01*
X198283Y262185D01*
X196971D01*
X196316Y261529D01*
X99868Y128477D02*
X99212Y129133D01*
X97900D01*
X97244Y128477D01*
Y125853D01*
X97900Y125197D01*
X99212D01*
X99868Y125853D01*
X101180Y125197D02*
X102492D01*
X101836D01*
Y129133D01*
X101180Y128477D01*
X104460Y125197D02*
X105772D01*
X105116D01*
Y129133D01*
X104460Y128477D01*
X185695Y130445D02*
X185039Y131101D01*
X183727D01*
X183071Y130445D01*
Y127821D01*
X183727Y127165D01*
X185039D01*
X185695Y127821D01*
X187007Y127165D02*
X188319D01*
X187663D01*
Y131101D01*
X187007Y130445D01*
X190286D02*
X190942Y131101D01*
X192254D01*
X192910Y130445D01*
Y127821D01*
X192254Y127165D01*
X190942D01*
X190286Y127821D01*
Y130445D01*
X151836Y66666D02*
X151181Y67322D01*
X149869D01*
X149213Y66666D01*
Y64042D01*
X149869Y63386D01*
X151181D01*
X151836Y64042D01*
X153148D02*
X153804Y63386D01*
X155116D01*
X155772Y64042D01*
Y66666D01*
X155116Y67322D01*
X153804D01*
X153148Y66666D01*
Y66010D01*
X153804Y65354D01*
X155772D01*
X149241Y174855D02*
X148585Y175511D01*
X147273D01*
X146617Y174855D01*
Y172231D01*
X147273Y171575D01*
X148585D01*
X149241Y172231D01*
X150553Y174855D02*
X151209Y175511D01*
X152521D01*
X153177Y174855D01*
Y174199D01*
X152521Y173543D01*
X153177Y172887D01*
Y172231D01*
X152521Y171575D01*
X151209D01*
X150553Y172231D01*
Y172887D01*
X151209Y173543D01*
X150553Y174199D01*
Y174855D01*
X151209Y173543D02*
X152521D01*
X114540Y239405D02*
X113884Y240061D01*
X112572D01*
X111916Y239405D01*
Y236781D01*
X112572Y236125D01*
X113884D01*
X114540Y236781D01*
X115851Y240061D02*
X118475D01*
Y239405D01*
X115851Y236781D01*
Y236125D01*
X105452Y239029D02*
X104796Y239685D01*
X103484D01*
X102828Y239029D01*
Y236406D01*
X103484Y235750D01*
X104796D01*
X105452Y236406D01*
X109388Y239685D02*
X108076Y239029D01*
X106764Y237718D01*
Y236406D01*
X107420Y235750D01*
X108732D01*
X109388Y236406D01*
Y237062D01*
X108732Y237718D01*
X106764D01*
X98293Y258004D02*
X97637Y258660D01*
X96325D01*
X95669Y258004D01*
Y255380D01*
X96325Y254724D01*
X97637D01*
X98293Y255380D01*
X102229Y258660D02*
X99605D01*
Y256692D01*
X100917Y257348D01*
X101573D01*
X102229Y256692D01*
Y255380D01*
X101573Y254724D01*
X100261D01*
X99605Y255380D01*
X164829Y189500D02*
X164173Y190156D01*
X162861D01*
X162205Y189500D01*
Y186876D01*
X162861Y186221D01*
X164173D01*
X164829Y186876D01*
X168108Y186221D02*
Y190156D01*
X166140Y188188D01*
X168764D01*
X176013Y255231D02*
X175357Y255887D01*
X174045D01*
X173389Y255231D01*
Y252607D01*
X174045Y251951D01*
X175357D01*
X176013Y252607D01*
X177325Y255231D02*
X177981Y255887D01*
X179293D01*
X179949Y255231D01*
Y254575D01*
X179293Y253919D01*
X178637D01*
X179293D01*
X179949Y253263D01*
Y252607D01*
X179293Y251951D01*
X177981D01*
X177325Y252607D01*
X89238Y258004D02*
X88582Y258660D01*
X87270D01*
X86614Y258004D01*
Y255380D01*
X87270Y254724D01*
X88582D01*
X89238Y255380D01*
X93174Y254724D02*
X90550D01*
X93174Y257348D01*
Y258004D01*
X92518Y258660D01*
X91206D01*
X90550Y258004D01*
X175459Y179264D02*
X174802Y179920D01*
X173491D01*
X172835Y179264D01*
Y176640D01*
X173491Y175984D01*
X174802D01*
X175459Y176640D01*
X176770Y175984D02*
X178082D01*
X177426D01*
Y179920D01*
X176770Y179264D01*
X145276Y317323D02*
Y321259D01*
X147243D01*
X147899Y320603D01*
Y319291D01*
X147243Y318635D01*
X145276D01*
X149211Y317323D02*
X150523D01*
X149867D01*
Y321259D01*
X149211Y320603D01*
X152491Y321259D02*
X155115D01*
Y320603D01*
X152491Y317979D01*
Y317323D01*
X199474Y270209D02*
X198818Y270865D01*
X197506D01*
X196850Y270209D01*
Y267585D01*
X197506Y266929D01*
X198818D01*
X199474Y267585D01*
X200786Y270209D02*
X201442Y270865D01*
X202754D01*
X203410Y270209D01*
Y269553D01*
X202754Y268897D01*
X202098D01*
X202754D01*
X203410Y268241D01*
Y267585D01*
X202754Y266929D01*
X201442D01*
X200786Y267585D01*
X207346Y270865D02*
X204722D01*
Y268897D01*
X206034Y269553D01*
X206690D01*
X207346Y268897D01*
Y267585D01*
X206690Y266929D01*
X205378D01*
X204722Y267585D01*
X205773Y120996D02*
X205118Y121652D01*
X203806D01*
X203150Y120996D01*
Y118372D01*
X203806Y117717D01*
X205118D01*
X205773Y118372D01*
X207085Y120996D02*
X207741Y121652D01*
X209053D01*
X209709Y120996D01*
Y120340D01*
X209053Y119684D01*
X208397D01*
X209053D01*
X209709Y119028D01*
Y118372D01*
X209053Y117717D01*
X207741D01*
X207085Y118372D01*
X213645Y121652D02*
X212333Y120996D01*
X211021Y119684D01*
Y118372D01*
X211677Y117717D01*
X212989D01*
X213645Y118372D01*
Y119028D01*
X212989Y119684D01*
X211021D01*
X303937Y25788D02*
X300001D01*
X339174Y24803D02*
Y28739D01*
X337206Y26771D02*
X341142D01*
X80315Y34495D02*
X84314D01*
X82314Y36494D02*
Y32496D01*
X92311Y34495D02*
X96310D01*
X33708Y99213D02*
Y95214D01*
X35707Y97213D02*
X31708D01*
X33708Y87217D02*
Y83218D01*
X34495Y133858D02*
Y129859D01*
X36494Y131859D02*
X32496D01*
X34495Y121862D02*
Y117863D01*
Y169291D02*
Y165293D01*
X36494Y167292D02*
X32496D01*
X34495Y157295D02*
Y153296D01*
X33708Y202362D02*
Y198363D01*
X35707Y200363D02*
X31708D01*
X33708Y190366D02*
Y186367D01*
X244488Y33708D02*
X248487D01*
X246487Y35707D02*
Y31708D01*
X256484Y33708D02*
X260483D01*
X175984Y35282D02*
X179983D01*
X187980D02*
X191979D01*
X189980Y37282D02*
Y33283D01*
X140551Y35676D02*
X144550D01*
X152547D02*
X156546D01*
X154547Y37675D02*
Y33677D01*
X213779Y35282D02*
X217778D01*
X215779Y37282D02*
Y33283D01*
X225776Y35282D02*
X229774D01*
X2362Y322047D02*
X6361D01*
Y320048D01*
X5694Y319381D01*
X4361D01*
X3695Y320048D01*
Y322047D01*
X2362Y318049D02*
X5028D01*
X6361Y316716D01*
X5028Y315383D01*
X2362D01*
X4361D01*
Y318049D01*
X6361Y314050D02*
Y311384D01*
Y312717D01*
X2362D01*
X5694Y307385D02*
X6361Y308052D01*
Y309385D01*
X5694Y310051D01*
X5028D01*
X4361Y309385D01*
Y308052D01*
X3695Y307385D01*
X3029D01*
X2362Y308052D01*
Y309385D01*
X3029Y310051D01*
X6361Y304053D02*
Y305386D01*
X5694Y306052D01*
X3029D01*
X2362Y305386D01*
Y304053D01*
X3029Y303387D01*
X5694D01*
X6361Y304053D01*
X5694Y299388D02*
X6361Y300054D01*
Y301387D01*
X5694Y302054D01*
X5028D01*
X4361Y301387D01*
Y300054D01*
X3695Y299388D01*
X3029D01*
X2362Y300054D01*
Y301387D01*
X3029Y302054D01*
X5694Y298055D02*
X6361Y297389D01*
Y296056D01*
X5694Y295389D01*
X3029D01*
X2362Y296056D01*
Y297389D01*
X3029Y298055D01*
X5694D01*
X6361Y291390D02*
Y294056D01*
X4361D01*
X5028Y292723D01*
Y292057D01*
X4361Y291390D01*
X3029D01*
X2362Y292057D01*
Y293390D01*
X3029Y294056D01*
X5694Y290058D02*
X6361Y289391D01*
Y288058D01*
X5694Y287392D01*
X3029D01*
X2362Y288058D01*
Y289391D01*
X3029Y290058D01*
X5694D01*
X2362Y284060D02*
X6361D01*
X4361Y286059D01*
Y283393D01*
X2362Y282060D02*
Y280727D01*
Y281394D01*
X6361D01*
X5694Y282060D01*
X3029Y278728D02*
X2362Y278061D01*
Y276729D01*
X3029Y276062D01*
X5694D01*
X6361Y276729D01*
Y278061D01*
X5694Y278728D01*
X5028D01*
X4361Y278061D01*
Y276062D01*
X2362Y274729D02*
X6361D01*
Y272730D01*
X5694Y272063D01*
X4361D01*
X3695Y272730D01*
Y274729D01*
X6361Y270730D02*
Y268065D01*
Y269398D01*
X2362D01*
X6361Y266732D02*
X3695D01*
X2362Y265399D01*
X3695Y264066D01*
X6361D01*
X5694Y262733D02*
X6361Y262067D01*
Y260734D01*
X5694Y260067D01*
X5028D01*
X4361Y260734D01*
Y261400D01*
Y260734D01*
X3695Y260067D01*
X3029D01*
X2362Y260734D01*
Y262067D01*
X3029Y262733D01*
X359449Y8418D02*
X362448Y11417D01*
X365447Y8418D01*
X49606Y33314D02*
X53605D01*
X51606Y35313D02*
Y31315D01*
X61602Y33314D02*
X65601D01*
X40794Y65748D02*
Y61749D01*
X42794Y63749D02*
X38795D01*
X40794Y53752D02*
Y49753D01*
X40401Y238189D02*
Y234190D01*
X42400Y236190D02*
X38401D01*
X40401Y226193D02*
Y222194D01*
D44*
X219606Y331449D02*
G03*
X219606Y331449I-1181J0D01*
G01*
D62*
X90354Y125591D02*
G03*
X90354Y125591I-394J0D01*
G01*
X82719Y127165D02*
G03*
X82719Y127165I-1419J0D01*
G01*
X335955Y68248D02*
G03*
X338455Y68248I1250J0D01*
G01*
X90354Y165354D02*
G03*
X90354Y165354I-394J0D01*
G01*
X82719Y166929D02*
G03*
X82719Y166929I-1419J0D01*
G01*
X350157Y139488D02*
G03*
X350157Y139488I-394J0D01*
G01*
X309008Y111394D02*
X309402Y111787D01*
X308968Y119287D02*
X309402Y118854D01*
Y111787D02*
Y118854D01*
X294508Y118827D02*
X294969Y119287D01*
X308968D01*
X294969Y111394D02*
X309008D01*
X294508Y111854D02*
X294969Y111394D01*
X294508Y111854D02*
Y118827D01*
X453890Y148008D02*
X454284Y148402D01*
X453850Y155902D02*
X454284Y155468D01*
Y148402D02*
Y155468D01*
X439390Y155441D02*
X439850Y155902D01*
X453850D01*
X439850Y148008D02*
X453890D01*
X439390Y148468D02*
X439850Y148008D01*
X439390Y148468D02*
Y155441D01*
X101031Y239579D02*
X101031Y250579D01*
X95031Y239579D02*
X101031D01*
X95031D02*
Y250579D01*
X101031Y250579D01*
X93551Y239579D02*
X93551Y250579D01*
X87551Y239579D02*
X93551D01*
X87551D02*
Y250579D01*
X93551Y250579D01*
X85335Y123228D02*
Y158661D01*
X57579D02*
X85335D01*
X57579Y123228D02*
Y158661D01*
Y123228D02*
X85335D01*
X121653Y242421D02*
Y254429D01*
X127165Y242421D02*
Y254429D01*
X121653D02*
X127165D01*
X121653Y242421D02*
X127165D01*
X278661Y175835D02*
X288661D01*
X289161Y175335D01*
Y170335D02*
Y175335D01*
X278661Y169835D02*
X288661D01*
X289161Y170335D01*
X278161D02*
X278661Y169835D01*
X278161Y170335D02*
Y175335D01*
X278661Y175835D01*
X258268Y183760D02*
Y186811D01*
X262205Y186811D01*
X258268Y175000D02*
Y178051D01*
Y175000D02*
X262205D01*
X159264Y180559D02*
X170264Y180559D01*
Y174559D02*
Y180559D01*
X159264Y174559D02*
X170264D01*
X159264Y180559D02*
X159264Y174559D01*
X145984Y248669D02*
X155984D01*
X156484Y248169D01*
Y243169D02*
Y248169D01*
X145984Y242669D02*
X155984D01*
X156484Y243169D01*
X145484D02*
X145984Y242669D01*
X145484Y243169D02*
Y248169D01*
X145984Y248669D01*
X145079Y255906D02*
X148130D01*
X145079Y259842D02*
X145079Y255906D01*
X153839D02*
X156890D01*
Y259842D01*
X196606Y165957D02*
X196606Y176957D01*
X202606D01*
Y165957D02*
Y176957D01*
X196606Y165957D02*
X202606Y165957D01*
X210386Y165957D02*
X210386Y176957D01*
X216386D01*
Y165957D02*
Y176957D01*
X210386Y165957D02*
X216386Y165957D01*
X230953Y178634D02*
Y179634D01*
X224953Y178634D02*
Y179634D01*
X205118Y145177D02*
Y157185D01*
X210630Y145177D02*
Y157185D01*
X205118D02*
X210630D01*
X205118Y145177D02*
X210630D01*
X141535Y223228D02*
X144587D01*
X141535Y227165D02*
X141535Y223228D01*
X150295D02*
X153347D01*
Y227165D01*
X108083Y124165D02*
X119083Y124165D01*
X108083Y124165D02*
Y130165D01*
X119083D01*
X119083Y124165D01*
X169500Y125740D02*
X180500Y125740D01*
X169500Y125740D02*
Y131740D01*
X180500D01*
X180500Y125740D01*
X144141Y94883D02*
Y104883D01*
X154141Y114883D01*
X144141Y84882D02*
X154141Y74883D01*
X144141Y84882D02*
Y94883D01*
X188141D02*
Y104883D01*
X178141Y114883D02*
X188141Y104883D01*
X178141Y74883D02*
X188141Y84882D01*
Y94883D01*
X77087Y230858D02*
X87087D01*
X76587Y231358D02*
X77087Y230858D01*
X76587Y231358D02*
Y236358D01*
X77087Y236858D02*
X87087D01*
X76587Y236358D02*
X77087Y236858D01*
X87087D02*
X87587Y236358D01*
Y231358D02*
Y236358D01*
X87087Y230858D02*
X87587Y231358D01*
X77087Y229378D02*
X87087D01*
X87587Y228878D01*
Y223878D02*
Y228878D01*
X77087Y223378D02*
X87087D01*
X87587Y223878D01*
X76587D02*
X77087Y223378D01*
X76587Y223878D02*
Y228878D01*
X77087Y229378D01*
X161339Y259205D02*
X171339D01*
X160839Y259705D02*
X161339Y259205D01*
X160839Y259705D02*
Y264705D01*
X161339Y265205D02*
X171339D01*
X160839Y264705D02*
X161339Y265205D01*
X171339D02*
X171839Y264705D01*
Y259705D02*
Y264705D01*
X171339Y259205D02*
X171839Y259705D01*
X149161Y52193D02*
Y61193D01*
X168161D01*
X149161Y52193D02*
X168161D01*
Y61193D01*
X43258Y215587D02*
X73041D01*
X43258Y254570D02*
X73041D01*
X43258Y215787D02*
Y254370D01*
X73041Y215787D02*
Y254370D01*
X130291Y233445D02*
X138185D01*
X130291Y218551D02*
Y233445D01*
X138185Y218551D02*
Y233445D01*
X130291Y218551D02*
X138185D01*
X120622Y221575D02*
Y231575D01*
X121122Y232075D01*
X126122D01*
X126622Y221575D02*
Y231575D01*
X126122Y232075D02*
X126622Y231575D01*
X126122Y221075D02*
X126622Y221575D01*
X121122Y221075D02*
X126122D01*
X120622Y221575D02*
X121122Y221075D01*
X23504Y291850D02*
Y301850D01*
X13504Y291850D02*
X23504D01*
X13504D02*
Y301850D01*
X23504D01*
X125012Y161173D02*
X136012Y161173D01*
X125012Y161173D02*
Y167173D01*
X136012D01*
X136012Y161173D01*
X140591Y132756D02*
Y139055D01*
X127126Y132756D02*
Y139055D01*
X121110Y139657D02*
Y140657D01*
X115110Y139657D02*
Y140657D01*
X189126Y243122D02*
X189126Y254122D01*
X195126D01*
Y243122D02*
Y254122D01*
X189126Y243122D02*
X195126Y243122D01*
X173866Y140445D02*
Y141445D01*
X167866Y140445D02*
Y141445D01*
X161567Y238504D02*
Y248504D01*
X162067Y249004D01*
X167067D01*
X167567Y238504D02*
Y248504D01*
X167067Y249004D02*
X167567Y248504D01*
X167067Y238004D02*
X167567Y238504D01*
X162067Y238004D02*
X167067D01*
X161567Y238504D02*
X162067Y238004D01*
X162638Y133937D02*
Y140236D01*
X149173Y133937D02*
Y140236D01*
X146665Y161567D02*
X157665Y161567D01*
X146665Y161567D02*
Y167567D01*
X157665D01*
X157665Y161567D01*
X117961Y221075D02*
X117961Y232075D01*
X111961Y221075D02*
X117961D01*
X111961D02*
Y232075D01*
X117961Y232075D01*
X108905Y220681D02*
X108905Y231681D01*
X102905Y220681D02*
X108905D01*
X102905D02*
Y231681D01*
X108905Y231681D01*
X173437Y241882D02*
X184437Y241882D01*
X173437Y241882D02*
Y247882D01*
X184437D01*
X184437Y241882D01*
X78496Y245169D02*
Y246169D01*
X84496Y245169D02*
Y246169D01*
X331634Y68248D02*
X335955D01*
X338455D02*
X342520D01*
Y48248D02*
Y68248D01*
X331634Y48248D02*
X342520D01*
X331634D02*
Y68248D01*
X85335Y162992D02*
Y198425D01*
X57579D02*
X85335D01*
X57579Y162992D02*
Y198425D01*
Y162992D02*
X85335D01*
X118846Y52193D02*
Y61193D01*
X137847D01*
X118846Y52193D02*
X137847D01*
Y61193D01*
X97291Y94883D02*
Y104883D01*
X107291Y114883D01*
X97291Y84882D02*
X107291Y74883D01*
X97291Y84882D02*
Y94883D01*
X141291D02*
Y104883D01*
X131291Y114883D02*
X141291Y104883D01*
X131291Y74883D02*
X141291Y84882D01*
Y94883D01*
X193886Y271504D02*
X193886Y265504D01*
X182886Y271504D02*
X193886D01*
X182886Y265504D02*
Y271504D01*
Y265504D02*
X193886Y265504D01*
X200579Y122291D02*
X200579Y116291D01*
X189579Y122291D02*
X200579D01*
X189579Y116291D02*
Y122291D01*
Y116291D02*
X200579Y116291D01*
D63*
X116634Y255118D02*
G03*
X116634Y255118I-492J0D01*
G01*
X266634Y173721D02*
G03*
X266634Y173721I-492J0D01*
G01*
X158661Y263779D02*
G03*
X158661Y263779I-492J0D01*
G01*
X200098Y157874D02*
G03*
X200098Y157874I-492J0D01*
G01*
X155118Y231102D02*
G03*
X155118Y231102I-492J0D01*
G01*
X155869Y211133D02*
G03*
X155869Y211133I-492J0D01*
G01*
X53642Y213287D02*
G03*
X53642Y213287I-492J0D01*
G01*
D64*
X84055Y326772D02*
G03*
X84055Y326772I-787J0D01*
G01*
X48293Y91339D02*
G03*
X48293Y91339I-787J0D01*
G01*
D65*
X155413Y197961D02*
G03*
X155413Y195561I0J-1200D01*
G01*
X165775Y325878D02*
Y351178D01*
X231075D01*
Y325878D02*
Y351178D01*
X165775Y325878D02*
X231075D01*
X136525Y274678D02*
Y326878D01*
X260325D01*
Y274678D02*
Y326878D01*
X136525Y274678D02*
X260325D01*
X255125Y326878D02*
Y351178D01*
X241125D02*
X255125D01*
X241125Y326878D02*
Y351178D01*
X155725Y326878D02*
Y351178D01*
X141725D02*
X155725D01*
X141725Y326878D02*
Y351178D01*
X155413Y187911D02*
Y205611D01*
X116830Y187911D02*
Y205611D01*
D66*
X431598Y52756D02*
G03*
X431598Y52756I-495J0D01*
G01*
D67*
X86221Y260827D02*
X107874D01*
X108071D02*
X109843D01*
Y295079D01*
X86221Y260827D02*
Y264567D01*
Y278543D02*
Y302559D01*
X88189Y325000D02*
Y327756D01*
X107874D01*
Y321850D02*
Y327756D01*
X90354Y321850D02*
X107874D01*
X109843D01*
Y317913D02*
Y321850D01*
X425760Y131358D02*
Y132858D01*
X422760D02*
X425760D01*
X416760Y134858D02*
Y136358D01*
Y134858D02*
X419760D01*
Y131858D02*
Y135858D01*
X422760Y131858D02*
Y135858D01*
X419760Y131858D02*
X422760D01*
X419760Y135858D02*
X422760D01*
X427165Y62598D02*
X429921D01*
Y61811D02*
Y62598D01*
X418110Y61811D02*
Y62598D01*
X420866D01*
X418110Y50787D02*
Y51575D01*
Y50787D02*
X420472D01*
X427559D02*
X429921D01*
Y51575D01*
X358268Y139606D02*
Y141732D01*
Y102362D02*
Y104488D01*
X397638Y139606D02*
Y141732D01*
Y102362D02*
Y104488D01*
X358268Y141732D02*
X360394D01*
X358268Y102362D02*
X360394D01*
X395512Y141732D02*
X397638D01*
X395512Y102362D02*
X397638D01*
X386619Y192350D02*
Y194187D01*
X385700Y193269D02*
X387537D01*
X387496Y200670D02*
X385922D01*
X396059Y202138D02*
Y200301D01*
X396977Y201220D02*
X395140D01*
X395181Y193818D02*
X396755D01*
X386619Y209673D02*
Y211510D01*
X385700Y210592D02*
X387537D01*
X387496Y217992D02*
X385922D01*
X406304Y210067D02*
Y211904D01*
X405385Y210985D02*
X407222D01*
X407181Y218386D02*
X405607D01*
X326382Y191563D02*
Y193400D01*
X325464Y192481D02*
X327301D01*
X327260Y199882D02*
X325686D01*
D68*
X63976Y102749D02*
X69901D01*
X63976Y109849D02*
X69901D01*
X69901Y109856D02*
X69901Y102756D01*
X63976Y102749D02*
Y109849D01*
D69*
X188583Y73793D02*
X225383D01*
X188583Y73893D02*
X225383D01*
X188583Y73993D02*
X225383D01*
X188583Y74093D02*
X225383D01*
X188583Y74193D02*
X225383D01*
X188583Y74293D02*
X225383D01*
X188583Y74393D02*
X225383D01*
X188583Y74493D02*
X225383D01*
X188583Y74593D02*
X225383D01*
X188583Y74693D02*
X225383D01*
X188583Y74793D02*
X225383D01*
X188583Y74893D02*
X225383D01*
X188583Y74993D02*
X225383D01*
X188583Y75093D02*
X225383D01*
X188583Y75193D02*
X225383D01*
X188583Y75293D02*
X225383D01*
X188583Y75393D02*
X225383D01*
X188583Y75493D02*
X225383D01*
X188583Y75593D02*
X225383D01*
X188583Y75693D02*
X225383D01*
X188583Y75793D02*
X225383D01*
X188583Y75893D02*
X225383D01*
X188583Y75993D02*
X225383D01*
X188583Y76093D02*
X225383D01*
X188583Y76193D02*
X225383D01*
X188583Y76293D02*
X225383D01*
X188583Y76393D02*
X225383D01*
X188583Y76493D02*
X225383D01*
X188583Y76593D02*
X225383D01*
X188583Y76693D02*
X225383D01*
X188583Y76793D02*
X225383D01*
X188583Y76893D02*
X225383D01*
X188583Y76993D02*
X225383D01*
X188583Y77093D02*
X225383D01*
X188583Y77193D02*
X225383D01*
X188583Y77293D02*
X225383D01*
X188583Y47193D02*
X225383D01*
X188583Y47293D02*
X225383D01*
X188583Y47393D02*
X225383D01*
X188583Y47493D02*
X225383D01*
X188583Y47593D02*
X225383D01*
X188583Y47693D02*
X225383D01*
X188583Y47793D02*
X225383D01*
X188583Y47893D02*
X225383D01*
X188583Y47993D02*
X225383D01*
X188583Y48093D02*
X225383D01*
X188583Y48193D02*
X225383D01*
X188583Y48293D02*
X225383D01*
X188583Y48393D02*
X225383D01*
X188583Y48493D02*
X225383D01*
X188583Y48593D02*
X225383D01*
X188583Y48693D02*
X225383D01*
X188583Y48793D02*
X225383D01*
X188583Y48893D02*
X225383D01*
X188583Y48993D02*
X225383D01*
X188583Y49093D02*
X225383D01*
X188583Y49193D02*
X225383D01*
X188583Y49293D02*
X225383D01*
X188583Y49393D02*
X225383D01*
X188583Y49493D02*
X225383D01*
X188583Y49593D02*
X225383D01*
X188583Y49693D02*
X225383D01*
X188583Y49793D02*
X225383D01*
X188583Y49893D02*
X225383D01*
X188583Y49993D02*
X225383D01*
X188583Y50093D02*
X225383D01*
X188583Y50193D02*
X225383D01*
X188583Y50293D02*
X225383D01*
X188583Y50393D02*
X225383D01*
X188583Y50493D02*
X225383D01*
X188583Y50593D02*
X225383D01*
X188583Y50693D02*
X225383D01*
X188583Y50793D02*
X225383D01*
X188583Y50893D02*
X225383D01*
X188583Y50993D02*
X225383D01*
X188583Y51093D02*
X225383D01*
X188583Y51193D02*
X225383D01*
X188583Y51293D02*
X225383D01*
X188583Y51393D02*
X225383D01*
X188583Y51493D02*
X225383D01*
X188583Y51593D02*
X225383D01*
X188583Y51693D02*
X225383D01*
X188583Y51793D02*
X225383D01*
X188583Y51893D02*
X225383D01*
X188583Y51993D02*
X225383D01*
X188583Y52093D02*
X225383D01*
X188583Y52193D02*
X225383D01*
X188583Y52293D02*
X225383D01*
X188583Y52393D02*
X225383D01*
X188583Y52493D02*
X225383D01*
X188583Y52593D02*
X225383D01*
X188583Y52693D02*
X225383D01*
X188583Y52793D02*
X225383D01*
X188583Y52893D02*
X225383D01*
X188583Y52993D02*
X225383D01*
X188583Y53093D02*
X225383D01*
X188583Y53193D02*
X225383D01*
X188583Y53293D02*
X225383D01*
X188583Y53393D02*
X225383D01*
X188583Y53493D02*
X225383D01*
X188583Y53593D02*
X225383D01*
X188583Y53693D02*
X225383D01*
X188583Y53793D02*
X225383D01*
X188583Y53893D02*
X225383D01*
X188583Y53993D02*
X225383D01*
X188583Y54093D02*
X225383D01*
X188583Y54193D02*
X225383D01*
X188583Y54293D02*
X225383D01*
X188583Y54393D02*
X225383D01*
X188583Y54493D02*
X225383D01*
X188583Y54593D02*
X225383D01*
X188583Y54693D02*
X225383D01*
X188583Y54793D02*
X225383D01*
X188583Y54893D02*
X225383D01*
X188583Y54993D02*
X225383D01*
X188583Y55093D02*
X225383D01*
X188583Y55193D02*
X225383D01*
X188583Y55293D02*
X225383D01*
X188583Y55393D02*
X225383D01*
X188583Y55493D02*
X225383D01*
X188583Y55593D02*
X225383D01*
X188583Y55693D02*
X225383D01*
X188583Y55793D02*
X225383D01*
X188583Y55893D02*
X225383D01*
X188583Y55993D02*
X225383D01*
X188583Y56093D02*
X225383D01*
X188583Y56193D02*
X225383D01*
X188583Y56293D02*
X225383D01*
X188583Y56393D02*
X225383D01*
X188583Y56493D02*
X225383D01*
X188583Y56593D02*
X225383D01*
X188583Y56693D02*
X225383D01*
X188583Y56793D02*
X225383D01*
X188583Y56893D02*
X225383D01*
X188583Y56993D02*
X225383D01*
X188583Y57093D02*
X225383D01*
X188583Y57193D02*
X225383D01*
X188583Y57293D02*
X225383D01*
X188583Y57393D02*
X225383D01*
X188583Y57493D02*
X225383D01*
X188583Y57593D02*
X225383D01*
X188583Y57693D02*
X225383D01*
X188583Y57793D02*
X225383D01*
X188583Y57893D02*
X225383D01*
X188583Y57993D02*
X225383D01*
X188583Y58093D02*
X225383D01*
X188583Y58193D02*
X225383D01*
X188583Y58293D02*
X225383D01*
X188583Y58393D02*
X225383D01*
X188583Y58493D02*
X225383D01*
X188583Y58593D02*
X225383D01*
X188583Y58693D02*
X225383D01*
X188583Y58793D02*
X225383D01*
X188583Y58893D02*
X225383D01*
X188583Y58993D02*
X225383D01*
X188583Y59093D02*
X225383D01*
X219883Y59193D02*
X225383D01*
X213783D02*
X215483D01*
X206983D02*
X209283D01*
X197283D02*
X202383D01*
X188583D02*
X192783D01*
X219883Y59293D02*
X225383D01*
X213683D02*
X215483D01*
X206983D02*
X209183D01*
X197283D02*
X202483D01*
X188583D02*
X192783D01*
X219883Y59393D02*
X225383D01*
X213683D02*
X215483D01*
X206983D02*
X209183D01*
X197283D02*
X202483D01*
X188583D02*
X192783D01*
X219883Y59493D02*
X225383D01*
X213683D02*
X215483D01*
X207083D02*
X209183D01*
X197283D02*
X202483D01*
X188583D02*
X192783D01*
X219883Y59593D02*
X225383D01*
X213583D02*
X215483D01*
X207083D02*
X209183D01*
X197283D02*
X202583D01*
X188583D02*
X192783D01*
X219883Y59693D02*
X225383D01*
X213583D02*
X215483D01*
X207083D02*
X209183D01*
X197283D02*
X202583D01*
X188583D02*
X192783D01*
X219883Y59793D02*
X225383D01*
X213583D02*
X215483D01*
X207083D02*
X209083D01*
X197283D02*
X202583D01*
X188583D02*
X192783D01*
X219883Y59893D02*
X225383D01*
X213483D02*
X215483D01*
X207083D02*
X209083D01*
X197283D02*
X202683D01*
X188583D02*
X192783D01*
X219883Y59993D02*
X225383D01*
X213483D02*
X215483D01*
X207183D02*
X209083D01*
X197283D02*
X202683D01*
X188583D02*
X192783D01*
X219883Y60093D02*
X225383D01*
X213383D02*
X215483D01*
X207183D02*
X209083D01*
X197283D02*
X202683D01*
X188583D02*
X192783D01*
X219883Y60193D02*
X225383D01*
X213383D02*
X215483D01*
X207183D02*
X209083D01*
X197283D02*
X202683D01*
X188583D02*
X192783D01*
X219883Y60293D02*
X225383D01*
X213383D02*
X215483D01*
X207183D02*
X209083D01*
X197283D02*
X202683D01*
X188583D02*
X192783D01*
X219883Y60393D02*
X225383D01*
X213383D02*
X215483D01*
X207183D02*
X208983D01*
X197283D02*
X202883D01*
X188583D02*
X192783D01*
X219883Y60493D02*
X225383D01*
X213283D02*
X215483D01*
X197283D02*
X202883D01*
X188583D02*
X192783D01*
X219883Y60593D02*
X225383D01*
X213283D02*
X215483D01*
X197283D02*
X202783D01*
X188583D02*
X192783D01*
X219883Y60693D02*
X225383D01*
X213283D02*
X215483D01*
X197283D02*
X202983D01*
X188583D02*
X192783D01*
X219883Y60793D02*
X225383D01*
X213183D02*
X215483D01*
X197283D02*
X202983D01*
X188583D02*
X192783D01*
X219883Y60893D02*
X225383D01*
X213183D02*
X215483D01*
X197283D02*
X202983D01*
X188583D02*
X192783D01*
X219883Y60993D02*
X225383D01*
X213183D02*
X215483D01*
X197283D02*
X203083D01*
X188583D02*
X192783D01*
X219883Y61093D02*
X225383D01*
X213083D02*
X215483D01*
X197283D02*
X203083D01*
X188583D02*
X192783D01*
X219883Y61193D02*
X225383D01*
X213083D02*
X215483D01*
X197283D02*
X203083D01*
X188583D02*
X192783D01*
X219883Y61293D02*
X225383D01*
X213083D02*
X215483D01*
X197283D02*
X203083D01*
X188583D02*
X192783D01*
X219883Y61393D02*
X225383D01*
X213083D02*
X215483D01*
X197283D02*
X203183D01*
X188583D02*
X192783D01*
X219883Y61493D02*
X225383D01*
X212983D02*
X215483D01*
X197283D02*
X203183D01*
X188583D02*
X192783D01*
X219883Y61593D02*
X225383D01*
X212983D02*
X215483D01*
X197283D02*
X203183D01*
X188583D02*
X192783D01*
X219883Y61693D02*
X225383D01*
X212783D02*
X215483D01*
X207183D02*
X208883D01*
X197283D02*
X203283D01*
X188583D02*
X192783D01*
X219883Y61793D02*
X225383D01*
X212783D02*
X215483D01*
X207183D02*
X208883D01*
X197283D02*
X203283D01*
X188583D02*
X192783D01*
X219883Y61893D02*
X225383D01*
X212883D02*
X215483D01*
X207183D02*
X208883D01*
X197283D02*
X203283D01*
X188583D02*
X192783D01*
X219883Y61993D02*
X225383D01*
X212683D02*
X215483D01*
X207183D02*
X208883D01*
X197283D02*
X203283D01*
X188583D02*
X192783D01*
X219883Y62093D02*
X225383D01*
X212683D02*
X215483D01*
X207383D02*
X208783D01*
X198983D02*
X203383D01*
X188583D02*
X192783D01*
X219883Y62193D02*
X225383D01*
X212683D02*
X215483D01*
X207283D02*
X208783D01*
X200583D02*
X203383D01*
X188583D02*
X192783D01*
X219883Y62293D02*
X225383D01*
X212683D02*
X215483D01*
X207283D02*
X208783D01*
X200683D02*
X203383D01*
X188583D02*
X192783D01*
X219883Y62393D02*
X225383D01*
X212583D02*
X215483D01*
X207283D02*
X208783D01*
X201183D02*
X203383D01*
X188583D02*
X192783D01*
X219883Y62493D02*
X225383D01*
X212583D02*
X215483D01*
X207383D02*
X208783D01*
X201683D02*
X203483D01*
X188583D02*
X192783D01*
X219883Y62593D02*
X225383D01*
X212583D02*
X215483D01*
X207483D02*
X208683D01*
X201883D02*
X203483D01*
X188583D02*
X192783D01*
X219883Y62693D02*
X225383D01*
X212483D02*
X215483D01*
X207483D02*
X208683D01*
X202083D02*
X203483D01*
X188583D02*
X192783D01*
X219883Y62793D02*
X225383D01*
X212483D02*
X215483D01*
X207483D02*
X208683D01*
X202183D02*
X203583D01*
X188583D02*
X192783D01*
X219883Y62893D02*
X225383D01*
X212483D02*
X215483D01*
X207483D02*
X208683D01*
X202283D02*
X203583D01*
X188583D02*
X192783D01*
X219883Y62993D02*
X225383D01*
X212383D02*
X215483D01*
X207583D02*
X208583D01*
X202383D02*
X203583D01*
X188583D02*
X192783D01*
X219883Y63093D02*
X225383D01*
X212383D02*
X215483D01*
X207583D02*
X208583D01*
X202383D02*
X203683D01*
X188583D02*
X192783D01*
X219883Y63193D02*
X225383D01*
X212383D02*
X215483D01*
X207583D02*
X208583D01*
X202483D02*
X203683D01*
X188583D02*
X192783D01*
X219883Y63293D02*
X225383D01*
X212283D02*
X215483D01*
X207683D02*
X208583D01*
X202483D02*
X203683D01*
X197383D02*
X198383D01*
X188583D02*
X192783D01*
X219883Y63393D02*
X225383D01*
X212283D02*
X215483D01*
X207683D02*
X208583D01*
X202483D02*
X203783D01*
X197283D02*
X198583D01*
X188583D02*
X192783D01*
X219883Y63493D02*
X225383D01*
X212283D02*
X215483D01*
X207683D02*
X208583D01*
X202483D02*
X203783D01*
X197283D02*
X198683D01*
X188583D02*
X192783D01*
X219883Y63593D02*
X225383D01*
X212283D02*
X215483D01*
X207683D02*
X208483D01*
X202483D02*
X203783D01*
X197283D02*
X198783D01*
X188583D02*
X192783D01*
X219883Y63693D02*
X225383D01*
X212183D02*
X215483D01*
X207683D02*
X208483D01*
X202483D02*
X203783D01*
X197283D02*
X198783D01*
X188583D02*
X192783D01*
X219883Y63793D02*
X225383D01*
X212183D02*
X215483D01*
X207783D02*
X208483D01*
X202483D02*
X203983D01*
X197283D02*
X198883D01*
X188583D02*
X192783D01*
X219883Y63893D02*
X225383D01*
X212083D02*
X215483D01*
X207783D02*
X208483D01*
X202483D02*
X203983D01*
X197283D02*
X198883D01*
X188583D02*
X192783D01*
X219883Y63993D02*
X225383D01*
X212083D02*
X215483D01*
X207783D02*
X208483D01*
X202483D02*
X203983D01*
X197283D02*
X198883D01*
X188583D02*
X192783D01*
X219883Y64093D02*
X225383D01*
X212083D02*
X215483D01*
X207883D02*
X208283D01*
X202483D02*
X203883D01*
X197283D02*
X198883D01*
X188583D02*
X192783D01*
X219883Y64193D02*
X225383D01*
X211983D02*
X215483D01*
X207883D02*
X208383D01*
X202483D02*
X204083D01*
X197283D02*
X198883D01*
X188583D02*
X192783D01*
X219883Y64293D02*
X225383D01*
X211983D02*
X215483D01*
X207883D02*
X208383D01*
X202483D02*
X204083D01*
X197283D02*
X198883D01*
X188583D02*
X192783D01*
X219883Y64393D02*
X225383D01*
X211983D02*
X215483D01*
X207983D02*
X208383D01*
X202483D02*
X204083D01*
X197283D02*
X198883D01*
X188583D02*
X192783D01*
X219883Y64493D02*
X225383D01*
X211883D02*
X215483D01*
X207983D02*
X208383D01*
X202483D02*
X204083D01*
X197283D02*
X198883D01*
X188583D02*
X192783D01*
X219883Y64593D02*
X225383D01*
X211883D02*
X215483D01*
X207983D02*
X208283D01*
X202483D02*
X204183D01*
X197283D02*
X198883D01*
X188583D02*
X192783D01*
X219883Y64693D02*
X225383D01*
X211883D02*
X215483D01*
X207983D02*
X208183D01*
X202483D02*
X204183D01*
X197283D02*
X198883D01*
X188583D02*
X192783D01*
X219883Y64793D02*
X225383D01*
X211883D02*
X215483D01*
X202483D02*
X204183D01*
X197283D02*
X198883D01*
X188583D02*
X192783D01*
X219883Y64893D02*
X225383D01*
X211683D02*
X215483D01*
X202483D02*
X204283D01*
X197283D02*
X198783D01*
X188583D02*
X192783D01*
X219883Y64993D02*
X225383D01*
X211683D02*
X215483D01*
X202483D02*
X204283D01*
X197283D02*
X198783D01*
X188583D02*
X192783D01*
X222483Y65093D02*
X225383D01*
X211783D02*
X212683D01*
X202483D02*
X204283D01*
X197283D02*
X198683D01*
X188583D02*
X192783D01*
X222583Y65193D02*
X225383D01*
X211583D02*
X212783D01*
X202483D02*
X204383D01*
X197283D02*
X198383D01*
X188583D02*
X192783D01*
X222583Y65293D02*
X225383D01*
X211583D02*
X212783D01*
X202383D02*
X204383D01*
X188583D02*
X192783D01*
X222583Y65393D02*
X225383D01*
X211483D02*
X212783D01*
X202383D02*
X204383D01*
X188583D02*
X192783D01*
X222583Y65493D02*
X225383D01*
X211483D02*
X212783D01*
X202283D02*
X204383D01*
X188583D02*
X192783D01*
X222583Y65593D02*
X225383D01*
X211483D02*
X212783D01*
X202183D02*
X204483D01*
X188583D02*
X192783D01*
X222583Y65693D02*
X225383D01*
X211483D02*
X212783D01*
X202183D02*
X204483D01*
X188583D02*
X192783D01*
X222583Y65793D02*
X225383D01*
X211383D02*
X212783D01*
X202083D02*
X204483D01*
X188583D02*
X192783D01*
X222583Y65893D02*
X225383D01*
X211383D02*
X212783D01*
X201883D02*
X204483D01*
X188583D02*
X192783D01*
X222583Y65993D02*
X225383D01*
X211383D02*
X212783D01*
X201583D02*
X204583D01*
X188583D02*
X192783D01*
X222583Y66093D02*
X225383D01*
X211283D02*
X212783D01*
X201383D02*
X204583D01*
X188583D02*
X192783D01*
X222583Y66193D02*
X225383D01*
X211283D02*
X212783D01*
X200983D02*
X204583D01*
X188583D02*
X192783D01*
X222583Y66293D02*
X225383D01*
X211283D02*
X212783D01*
X200283D02*
X204683D01*
X188583D02*
X192783D01*
X222583Y66393D02*
X225383D01*
X211183D02*
X212683D01*
X198883D02*
X204683D01*
X188583D02*
X192783D01*
X188583Y66493D02*
X225383D01*
X188583Y66593D02*
X225383D01*
X188583Y66693D02*
X225383D01*
X188583Y66793D02*
X225383D01*
X188583Y66893D02*
X225383D01*
X188583Y66993D02*
X225383D01*
X188583Y67093D02*
X225383D01*
X188583Y67193D02*
X225383D01*
X188583Y67293D02*
X225383D01*
X188583Y67393D02*
X225383D01*
X188583Y67493D02*
X225383D01*
X188583Y67593D02*
X225383D01*
X188583Y67693D02*
X225383D01*
X188583Y67793D02*
X225383D01*
X188583Y67893D02*
X225383D01*
X188583Y67993D02*
X225383D01*
X188583Y68093D02*
X225383D01*
X188583Y68193D02*
X225383D01*
X188583Y68293D02*
X225383D01*
X188583Y68393D02*
X225383D01*
X188583Y68493D02*
X225383D01*
X188583Y68593D02*
X225383D01*
X188583Y68693D02*
X225383D01*
X188583Y68793D02*
X225383D01*
X188583Y68893D02*
X225383D01*
X188583Y68993D02*
X225383D01*
X188583Y69093D02*
X225383D01*
X188583Y69193D02*
X225383D01*
X188583Y69293D02*
X225383D01*
X188583Y69393D02*
X225383D01*
X188583Y69493D02*
X225383D01*
X188583Y69593D02*
X225383D01*
X188583Y69693D02*
X225383D01*
X188583Y69793D02*
X225383D01*
X188583Y69893D02*
X225383D01*
X188583Y69993D02*
X225383D01*
X188583Y70093D02*
X225383D01*
X188583Y70193D02*
X225383D01*
X188583Y70293D02*
X225383D01*
X188583Y70393D02*
X225383D01*
X188583Y70493D02*
X225383D01*
X188583Y70593D02*
X225383D01*
X188583Y70693D02*
X225383D01*
X188583Y70793D02*
X225383D01*
X188583Y70893D02*
X225383D01*
X188583Y70993D02*
X225383D01*
X188583Y71093D02*
X225383D01*
X188583Y71193D02*
X225383D01*
X188583Y71293D02*
X225383D01*
X188583Y71393D02*
X225383D01*
X188583Y71493D02*
X225383D01*
X188583Y71593D02*
X225383D01*
X188583Y71693D02*
X225383D01*
X188583Y71793D02*
X225383D01*
X188583Y71893D02*
X225383D01*
X188583Y71993D02*
X225383D01*
X188583Y72093D02*
X225383D01*
X188583Y72193D02*
X225383D01*
X188583Y72293D02*
X225383D01*
X188583Y72393D02*
X225383D01*
X188583Y72493D02*
X225383D01*
X188583Y72593D02*
X225383D01*
X188583Y72693D02*
X225383D01*
X188583Y72793D02*
X225383D01*
X188583Y72893D02*
X225383D01*
X188583Y72993D02*
X225383D01*
X188583Y73093D02*
X225383D01*
X188583Y73193D02*
X225383D01*
X188583Y73293D02*
X225383D01*
X188583Y73393D02*
X225383D01*
X188583Y73493D02*
X225383D01*
X188583Y73593D02*
X225383D01*
X188583Y73693D02*
X225383D01*
D70*
X69113Y106302D02*
D03*
M02*
