M48
;Layer_Color=9474304
;FILE_FORMAT=2:5
INCH,LZ
;TYPE=PLATED
T1F00S00C0.01200
T2F00S00C0.03150
T3F00S00C0.03543
T4F00S00C0.03701
T5F00S00C0.03937
T6F00S00C0.04016
T7F00S00C0.04331
T8F00S00C0.04500
T9F00S00C0.04724
T10F00S00C0.05512
T11F00S00C0.06693
T12F00S00C0.11811
T13F00S00C0.13000
;TYPE=NON_PLATED
T14F00S00C0.06693
%
T01
X0090945Y0050787
X0116142Y0052756
Y0045276
Y0037008
X0127953Y0033465
Y0042913
Y0048819
X0140157Y0047244
X0147638
X0145669Y0057087
X0140157
X0159055Y0048819
Y004252
Y0035827
X0147638Y0033465
X017126Y0049213
X0179134
X0185039
Y005748
X017126
X0231496Y0038976
X0330709Y0041732
X038937
X0377559Y0057087
X0413779Y0052756
X0422047Y0046063
X0433465Y0062205
X0412205Y0069685
X0398031Y0077559
X0386221Y0085827
X0374803Y008937
X0382283Y0112598
X0408661Y0119685
X0437008Y0122047
X0446457Y012126
X0454331
X044252Y0102362
X0459449Y0088189
X0464173Y0064173
X0433858Y016811
X0411811Y0150394
X0407776Y0152756
X0395669Y0155118
X0378346Y0154331
X0406299Y0205512
X0348031Y0209449
X0331447Y0198524
X0330709Y0193524
X0331102Y018189
X0338583
X0340551Y0164961
X0340158Y0161417
X0358661
X0357874Y0164567
X0364961Y0177559
X0294488Y0182283
X0291339Y0187008
X0277953Y0199606
X0272441Y020315
X0244094Y0190157
X0238583Y0189764
X0215748Y0201181
X0220079Y0172441
X0219685Y0163386
X0222835Y0147244
X0255906Y013937
X0306299Y0125197
X0330315Y0128347
X0329921Y0113779
X0345669Y0112598
X0349606Y0115748
X0337795Y01
X033189Y0079921
X0334252Y0070866
X0337795Y0059055
X0368504Y006811
X0366535Y009252
X0304331Y0084646
X0286614Y0059055
X0238976Y0090551
X0183465Y0093701
X0186221Y0100394
X0191732Y0110236
X0188583Y0081102
X0184449Y0073819
X0185039Y0064961
X017126
X0174016Y0087402
X0147638Y0076772
Y0068898
X0145669Y0062992
X0140157
X0137795Y0068898
Y0076772
X0116142Y0066929
Y0060236
X0090945Y006063
Y0070079
Y008189
Y0097244
Y010748
Y0116142
X0100787Y0121653
X0098032Y0133858
X0111417Y0135039
Y0143701
X0111811Y015315
X0112205Y0163386
X0114173Y0172441
X0120079Y0170079
X0121653Y0159449
X0122835Y0153543
X0138976Y0158268
X0142126Y0164173
X0144488Y0149606
Y0141732
Y0134646
Y0125197
X0149606Y0122047
X0137795Y0121653
X0123622Y0122441
X0169685Y0122047
X0179528Y0136221
Y0146063
Y015315
X0179921Y0161417
Y0172047
X0162205Y0164567
X0159449Y0155512
Y0184861
X0151476Y0191643
X0146358
X014124
X0136122
X0131004
X0125885
X0120767
Y0196761
X0125885
X0131004
Y020188
X0136122
X014124
Y0196761
X0146358
X0151476
Y020188
X0146358
X0142519Y021378
X0125885Y020188
X0120767
X0115354Y0208268
X0112992Y0188976
X0097638Y0180709
X0105512Y0170709
X0205905Y0174015
X020315Y0162205
X0199606Y014252
X0192126Y0144095
X019685Y0198031
X0198425Y0230315
X0192126Y0238189
X0198819Y0248031
X0201969Y0263779
X0182677Y0256693
X0177165Y0272047
X0141339Y0267717
X0126378Y0270472
X011811Y0287008
X010748Y0256693
X0105118Y0248425
X011811Y0234252
X0125984Y0217717
X0131102Y0215748
X013996Y0216535
X0140945Y022126
X0140551Y024685
X0140157Y0250394
X0085039Y0216929
X0059842Y0287008
X0226772Y0266929
X0303543Y0235433
X0317717Y0240551
X032874Y0225984
X0350031Y0214929
T02
X0055905Y0051339
X0075906Y0051339
Y0081339
Y0091339
X0055905
Y0081339
T03
X005315Y0220079
Y0250079
X0018504Y029685
X006315Y0250079
X006315Y0220079
T04
X0255512Y0202756
Y0209449
Y0216142
Y0222835
Y0229528
T05
X0476378Y0044094
X0486378
Y0054094
X0476378
Y0064095
X0486378
Y0074094
X0476378
Y0084095
X0486378
Y0094095
X0476378
Y0104095
X0486378
Y0114094
X0476378
Y0124094
X0486378
Y0134095
X0476378
Y0144095
X0486378
Y0154095
X0476378
Y0164094
X0486378
Y0174094
X0476378
Y0184095
X0486378
Y0194095
X0476378
Y0204095
X0486378
X0227165Y0205748
Y0215748
Y0225748
X0476378Y0224095
Y0214094
X0486378
Y0224095
Y0234095
X0476378
T06
X0362008Y0020472
X0372008
X0382008
X0392008
X0402008
X0412008
T07
X0316142Y0025984
X0325984
T08
X0176625Y0283378
X0187525
X0198425
X0209325
X0203875Y0294578
X0192975
X0182075
X0214775
X0220225Y0283378
T09
X0178425Y0304449
X0188425
X0198425
X0208425
Y0314449
X0198425
X0188425
X0178425
X0218425
Y0304449
T10
X0136122Y0196761
T11
X0046654Y0017791
X0017717Y0050591
X0060433Y0017791
X0080709Y0019291
X0094488
X0108268
X0122047
X0142323Y0017717
X0156102
X0176575
X0190354
X0210827
X0224606
X0245079
X0258858
X0017717Y006437
Y0084842
Y0098622
Y0119095
Y0132874
Y0153347
Y0167126
Y0187598
Y0201378
Y0222244
Y0236024
T12
X0019685Y0017717
X0287717
X0484252
X0019685Y0269685
X0287717Y032874
X0484252
Y0269685
T13
X0148725Y0288978
X0248125
T14
X0050394Y0276575
Y0304134
X0098032
Y0276575
M30
