G04 Layer_Color=16711935*
%FSLAX25Y25*%
%MOIN*%
G70*
G01*
G75*
%ADD50C,0.06500*%
%ADD78R,0.11824X0.08674*%
%ADD79R,0.11824X0.09461*%
%ADD80R,0.11036X0.11824*%
%ADD104C,0.07493*%
%ADD105C,0.07099*%
%ADD106C,0.13800*%
%ADD107C,0.10642*%
%ADD108C,0.03200*%
%ADD109C,0.02800*%
%ADD110C,0.06706*%
%ADD111C,0.20485*%
%ADD112C,0.06391*%
%ADD113R,0.06706X0.06706*%
%ADD114R,0.06706X0.06706*%
%ADD115C,0.06312*%
%ADD116C,0.07887*%
%ADD117C,0.03202*%
D50*
X214775Y294578D02*
D03*
X203875D02*
D03*
X192975D02*
D03*
X182075D02*
D03*
X220225Y283378D02*
D03*
X209325D02*
D03*
X198425D02*
D03*
X187525D02*
D03*
X176625D02*
D03*
D78*
X83465Y312008D02*
D03*
X112598Y319488D02*
D03*
X35827Y312008D02*
D03*
X64961Y319488D02*
D03*
D79*
X112598Y308465D02*
D03*
X83465Y300984D02*
D03*
X64961Y308465D02*
D03*
X35827Y300984D02*
D03*
D80*
X112205Y271457D02*
D03*
X64567D02*
D03*
D104*
X98032Y276575D02*
D03*
Y304134D02*
D03*
X50394Y276575D02*
D03*
Y304134D02*
D03*
X98032Y276575D02*
D03*
Y304134D02*
D03*
D105*
X325984Y25984D02*
D03*
X316142D02*
D03*
X218425Y314449D02*
D03*
X208425D02*
D03*
X218425Y304449D02*
D03*
X208425D02*
D03*
X198425Y314449D02*
D03*
Y304449D02*
D03*
X188425Y314449D02*
D03*
Y304449D02*
D03*
X178425D02*
D03*
Y314449D02*
D03*
D106*
X248125Y288978D02*
D03*
X148725D02*
D03*
D107*
X17717Y222244D02*
D03*
Y236024D02*
D03*
Y50591D02*
D03*
Y64370D02*
D03*
X60433Y17791D02*
D03*
X46654D02*
D03*
X122047Y19291D02*
D03*
X108268D02*
D03*
X94488D02*
D03*
X80709D02*
D03*
X156102Y17717D02*
D03*
X142323D02*
D03*
X190354D02*
D03*
X176575D02*
D03*
X258858D02*
D03*
X245079D02*
D03*
X224606D02*
D03*
X210827D02*
D03*
X17717Y119095D02*
D03*
Y132874D02*
D03*
Y153347D02*
D03*
Y167126D02*
D03*
Y187598D02*
D03*
Y201378D02*
D03*
Y84842D02*
D03*
Y98622D02*
D03*
D108*
X151476Y191643D02*
D03*
X146358D02*
D03*
X141240D02*
D03*
X136122D02*
D03*
X131004D02*
D03*
X125885D02*
D03*
X120767D02*
D03*
X151476Y196761D02*
D03*
X146358D02*
D03*
X141240D02*
D03*
X131004D02*
D03*
X125885D02*
D03*
X120767D02*
D03*
X151476Y201880D02*
D03*
X146358D02*
D03*
X141240D02*
D03*
X136122D02*
D03*
X131004D02*
D03*
X125885D02*
D03*
X120767D02*
D03*
X454331Y121260D02*
D03*
X446457D02*
D03*
X174016Y87402D02*
D03*
X121653Y159449D02*
D03*
X138976Y158268D02*
D03*
X142126Y164173D02*
D03*
X162205Y164567D02*
D03*
X398031Y77559D02*
D03*
X422047Y46063D02*
D03*
X112992Y188976D02*
D03*
X159449Y184861D02*
D03*
X59842Y287008D02*
D03*
X118110D02*
D03*
X459449Y88189D02*
D03*
X389370Y41732D02*
D03*
X437008Y122047D02*
D03*
X412205Y69685D02*
D03*
X377559Y57087D02*
D03*
X433858Y168110D02*
D03*
X286614Y59055D02*
D03*
X337795Y100000D02*
D03*
X329921Y113779D02*
D03*
X337795Y59055D02*
D03*
X368504Y68110D02*
D03*
X364961Y177559D02*
D03*
X406299Y205512D02*
D03*
X331447Y198524D02*
D03*
X338583Y181890D02*
D03*
X330709Y193524D02*
D03*
X331102Y181890D02*
D03*
X442520Y102362D02*
D03*
X374803Y89370D02*
D03*
X231496Y38976D02*
D03*
X357874Y164567D02*
D03*
X358661Y161417D02*
D03*
X340158D02*
D03*
X340551Y164961D02*
D03*
X179921Y172047D02*
D03*
X382283Y112598D02*
D03*
X395669Y155118D02*
D03*
X97638Y180709D02*
D03*
X98032Y133858D02*
D03*
X291339Y187008D02*
D03*
X294488Y182283D02*
D03*
X317717Y240551D02*
D03*
X303543Y235433D02*
D03*
X198425Y230315D02*
D03*
X226772Y266929D02*
D03*
X411811Y150394D02*
D03*
X407776Y152756D02*
D03*
X192126Y144095D02*
D03*
X188583Y81102D02*
D03*
X199606Y142520D02*
D03*
X183465Y93701D02*
D03*
X433465Y62205D02*
D03*
X413779Y52756D02*
D03*
X408661Y119685D02*
D03*
X277953Y199606D02*
D03*
X238583Y189764D02*
D03*
X85039Y216929D02*
D03*
X115354Y208268D02*
D03*
X140945Y221260D02*
D03*
X125984Y217717D02*
D03*
X222835Y147244D02*
D03*
X255906Y139370D02*
D03*
X272441Y203150D02*
D03*
X378346Y154331D02*
D03*
X140551Y246850D02*
D03*
X182677Y256693D02*
D03*
X196850Y198031D02*
D03*
X107480Y256693D02*
D03*
X141339Y267717D02*
D03*
X328740Y225984D02*
D03*
X366535Y92520D02*
D03*
X244094Y190157D02*
D03*
X198819Y248031D02*
D03*
X192126Y238189D02*
D03*
X126378Y270472D02*
D03*
X118110Y234252D02*
D03*
X140157Y250394D02*
D03*
X105118Y248425D02*
D03*
X131102Y215748D02*
D03*
X139960Y216535D02*
D03*
X142519Y213780D02*
D03*
X345669Y112598D02*
D03*
X349606Y115748D02*
D03*
X348031Y209449D02*
D03*
X350031Y214929D02*
D03*
X330315Y128347D02*
D03*
X464173Y64173D02*
D03*
X105512Y170709D02*
D03*
X205905Y174015D02*
D03*
X120079Y170079D02*
D03*
X191732Y110236D02*
D03*
D109*
X136122Y196761D02*
D03*
X306299Y125197D02*
D03*
X330709Y41732D02*
D03*
X334252Y70866D02*
D03*
X331890Y79921D02*
D03*
X304331Y84646D02*
D03*
X201969Y263779D02*
D03*
X215748Y201181D02*
D03*
X177165Y272047D02*
D03*
X238976Y90551D02*
D03*
X114173Y172441D02*
D03*
X203150Y162205D02*
D03*
X220079Y172441D02*
D03*
X219685Y163386D02*
D03*
X184449Y73819D02*
D03*
X186221Y100394D02*
D03*
D110*
X362008Y20472D02*
D03*
X372008D02*
D03*
X382008D02*
D03*
X392008D02*
D03*
X402008D02*
D03*
X412008D02*
D03*
X63150Y220079D02*
D03*
X63150Y250079D02*
D03*
X53150D02*
D03*
X227165Y215748D02*
D03*
Y225748D02*
D03*
Y205748D02*
D03*
D111*
X19685Y269685D02*
D03*
X484252D02*
D03*
X19685Y17717D02*
D03*
X484252Y328740D02*
D03*
Y17717D02*
D03*
X287717D02*
D03*
Y328740D02*
D03*
D112*
X255512Y202756D02*
D03*
Y209449D02*
D03*
Y216142D02*
D03*
Y222835D02*
D03*
Y229528D02*
D03*
D113*
X53150Y220079D02*
D03*
D114*
X18504Y296850D02*
D03*
D115*
X75906Y81339D02*
D03*
X55905Y51339D02*
D03*
X75906Y51339D02*
D03*
Y91339D02*
D03*
X55905D02*
D03*
Y81339D02*
D03*
D116*
X486378Y44094D02*
D03*
X476378D02*
D03*
X486378Y54094D02*
D03*
X476378D02*
D03*
X486378Y64095D02*
D03*
X476378D02*
D03*
X486378Y74094D02*
D03*
X476378D02*
D03*
X486378Y84095D02*
D03*
X476378D02*
D03*
X486378Y94095D02*
D03*
X476378D02*
D03*
X486378Y104095D02*
D03*
X476378D02*
D03*
X486378Y114094D02*
D03*
X476378D02*
D03*
X486378Y124094D02*
D03*
X476378D02*
D03*
X486378Y134095D02*
D03*
X476378D02*
D03*
X486378Y144095D02*
D03*
X476378D02*
D03*
X486378Y154095D02*
D03*
X476378D02*
D03*
X486378Y164094D02*
D03*
X476378D02*
D03*
X486378Y174094D02*
D03*
X476378D02*
D03*
X486378Y184095D02*
D03*
X476378D02*
D03*
X486378Y194095D02*
D03*
X476378D02*
D03*
X486378Y204095D02*
D03*
X476378D02*
D03*
X486378Y214094D02*
D03*
X476378D02*
D03*
X486378Y224095D02*
D03*
X476378D02*
D03*
X486378Y234095D02*
D03*
X476378D02*
D03*
D117*
X185039Y64961D02*
D03*
X171260D02*
D03*
Y49213D02*
D03*
X179134D02*
D03*
X185039D02*
D03*
Y57480D02*
D03*
X147638Y33465D02*
D03*
Y47244D02*
D03*
Y76772D02*
D03*
X137795D02*
D03*
Y68898D02*
D03*
X147638D02*
D03*
X145669Y62992D02*
D03*
Y57087D02*
D03*
X140157D02*
D03*
Y62992D02*
D03*
Y47244D02*
D03*
X127953Y48819D02*
D03*
Y42913D02*
D03*
Y33465D02*
D03*
X159055Y48819D02*
D03*
Y42520D02*
D03*
Y35827D02*
D03*
X116142Y66929D02*
D03*
Y60236D02*
D03*
Y52756D02*
D03*
Y45276D02*
D03*
Y37008D02*
D03*
X169685Y122047D02*
D03*
X149606D02*
D03*
X123622Y122441D02*
D03*
X137795Y121653D02*
D03*
X144488Y125197D02*
D03*
Y134646D02*
D03*
Y141732D02*
D03*
Y149606D02*
D03*
X159449Y155512D02*
D03*
X122835Y153543D02*
D03*
X111811Y153150D02*
D03*
X112205Y163386D02*
D03*
X179528Y136221D02*
D03*
Y146063D02*
D03*
Y153150D02*
D03*
X179921Y161417D02*
D03*
X111417Y135039D02*
D03*
Y143701D02*
D03*
X90945Y97244D02*
D03*
Y107480D02*
D03*
Y116142D02*
D03*
X100787Y121653D02*
D03*
X90945Y81890D02*
D03*
Y70079D02*
D03*
Y60630D02*
D03*
Y50787D02*
D03*
X386221Y85827D02*
D03*
X171260Y57480D02*
D03*
M02*
