G04 Layer_Color=8388736*
%FSLAX25Y25*%
%MOIN*%
G70*
G01*
G75*
%ADD50C,0.06500*%
%ADD71R,0.05524X0.06509*%
%ADD72R,0.04343X0.06706*%
%ADD73R,0.04737X0.03950*%
%ADD74R,0.08674X0.08674*%
%ADD75R,0.07493X0.06509*%
%ADD76O,0.08674X0.01981*%
%ADD77R,0.06706X0.04343*%
%ADD78R,0.11824X0.08674*%
%ADD79R,0.11824X0.09461*%
%ADD80R,0.11036X0.11824*%
%ADD81R,0.03950X0.04737*%
%ADD82R,0.05524X0.03359*%
%ADD83R,0.04737X0.03950*%
%ADD84R,0.03359X0.05524*%
%ADD85R,0.06509X0.05524*%
%ADD86R,0.06706X0.03556*%
%ADD87R,0.23241X0.09855*%
%ADD88R,0.04343X0.07690*%
%ADD89R,0.07099X0.18517*%
%ADD90R,0.25091X0.10249*%
%ADD91R,0.02000X0.06200*%
%ADD92R,0.12611X0.10642*%
%ADD93R,0.05918X0.07887*%
%ADD94R,0.06312X0.07887*%
%ADD95R,0.15052X0.08083*%
%ADD96R,0.08674X0.03958*%
%ADD97R,0.05918X0.06902*%
%ADD98R,0.08674X0.05524*%
%ADD99R,0.02847X0.02178*%
%ADD100R,0.02178X0.02847*%
%ADD101R,0.02965X0.06587*%
%ADD102R,0.06587X0.02965*%
%ADD103R,0.05721X0.05131*%
%ADD104C,0.07493*%
%ADD105C,0.07099*%
%ADD106C,0.13800*%
%ADD107C,0.10642*%
%ADD108C,0.03200*%
%ADD109C,0.02800*%
%ADD110C,0.06706*%
%ADD111C,0.20485*%
%ADD112C,0.06391*%
%ADD113R,0.06706X0.06706*%
%ADD114R,0.06706X0.06706*%
%ADD115C,0.06312*%
%ADD116C,0.07887*%
%ADD117C,0.03202*%
G36*
X430054Y53858D02*
X427638D01*
Y55588D01*
X430054D01*
Y53858D01*
D02*
G37*
G36*
X420382D02*
X417992D01*
Y55587D01*
X420382D01*
Y53858D01*
D02*
G37*
G36*
X430065Y55827D02*
X427638D01*
Y57563D01*
X430065D01*
Y55827D01*
D02*
G37*
G36*
X420385D02*
X417992D01*
Y57561D01*
X420385D01*
Y55827D01*
D02*
G37*
G36*
X430055Y51890D02*
X427638D01*
Y53614D01*
X430055D01*
Y51890D01*
D02*
G37*
G36*
X426850Y50663D02*
X425124D01*
Y53070D01*
X426850D01*
Y50663D01*
D02*
G37*
G36*
X422903Y50663D02*
X421188D01*
Y53061D01*
X422903D01*
Y50663D01*
D02*
G37*
G36*
X420384Y51890D02*
X417992D01*
Y53614D01*
X420384D01*
Y51890D01*
D02*
G37*
G36*
X424879Y50665D02*
X423154D01*
Y53068D01*
X424879D01*
Y50665D01*
D02*
G37*
G36*
X422923Y60328D02*
X421168D01*
Y62726D01*
X422923D01*
Y60328D01*
D02*
G37*
G36*
X426866Y60319D02*
X425114D01*
Y62732D01*
X426866D01*
Y60319D01*
D02*
G37*
G36*
X149291Y194301D02*
X148267D01*
Y199222D01*
X149291D01*
Y194301D01*
D02*
G37*
G36*
X123976D02*
X122952D01*
Y199222D01*
X123976D01*
Y194301D01*
D02*
G37*
G36*
X424888Y60319D02*
X423145D01*
Y62723D01*
X424888D01*
Y60319D01*
D02*
G37*
G36*
X430055Y57795D02*
X427638D01*
Y59535D01*
X430055D01*
Y57795D01*
D02*
G37*
G36*
X420383D02*
X417992D01*
Y59536D01*
X420383D01*
Y57795D01*
D02*
G37*
G36*
X430052Y59764D02*
X427638D01*
Y61506D01*
X430052D01*
Y59764D01*
D02*
G37*
G36*
X420380D02*
X417992D01*
Y61514D01*
X420380D01*
Y59764D01*
D02*
G37*
D50*
X214775Y294578D02*
D03*
X203875D02*
D03*
X192975D02*
D03*
X182075D02*
D03*
X220225Y283378D02*
D03*
X209325D02*
D03*
X198425D02*
D03*
X187525D02*
D03*
X176625D02*
D03*
D71*
X298031Y115354D02*
D03*
X305906D02*
D03*
X442913Y151969D02*
D03*
X450787D02*
D03*
D72*
X379724Y33858D02*
D03*
X387205D02*
D03*
X363583Y52756D02*
D03*
X371063D02*
D03*
X444488Y138583D02*
D03*
X436614D02*
D03*
X280512Y163779D02*
D03*
X287992D02*
D03*
X329921Y122047D02*
D03*
X337795D02*
D03*
X329921Y107087D02*
D03*
X337795D02*
D03*
X280512Y154823D02*
D03*
X287992D02*
D03*
X280512Y144587D02*
D03*
X287992D02*
D03*
X280512Y134252D02*
D03*
X287992D02*
D03*
X444488Y129528D02*
D03*
X436614D02*
D03*
X424803Y115354D02*
D03*
X416929D02*
D03*
X363189Y37008D02*
D03*
X355709D02*
D03*
D73*
X98032Y248031D02*
D03*
X98032Y242126D02*
D03*
X90551Y248031D02*
D03*
X90551Y242126D02*
D03*
X199606Y168504D02*
D03*
X199606Y174409D02*
D03*
X213386Y168504D02*
D03*
X213386Y174409D02*
D03*
X123622Y223622D02*
D03*
Y229528D02*
D03*
X192126Y245669D02*
D03*
X192126Y251575D02*
D03*
X164567Y240551D02*
D03*
Y246457D02*
D03*
X114961Y229528D02*
D03*
X114961Y223622D02*
D03*
X105905Y229134D02*
D03*
X105905Y223228D02*
D03*
D74*
X281496Y68110D02*
D03*
Y48425D02*
D03*
D75*
X52953Y130945D02*
D03*
Y140945D02*
D03*
Y150945D02*
D03*
X89961D02*
D03*
Y140945D02*
D03*
Y130945D02*
D03*
X52953Y170709D02*
D03*
Y180709D02*
D03*
Y190709D02*
D03*
X89961D02*
D03*
Y180709D02*
D03*
Y170709D02*
D03*
D76*
X116142Y252362D02*
D03*
Y250394D02*
D03*
Y248425D02*
D03*
Y246457D02*
D03*
Y244488D02*
D03*
X132677Y252362D02*
D03*
Y250394D02*
D03*
Y248425D02*
D03*
Y246457D02*
D03*
Y244488D02*
D03*
X199606Y155118D02*
D03*
Y153150D02*
D03*
Y151181D02*
D03*
Y149213D02*
D03*
Y147244D02*
D03*
X216142Y155118D02*
D03*
Y153150D02*
D03*
Y151181D02*
D03*
Y149213D02*
D03*
Y147244D02*
D03*
D77*
X438189Y31496D02*
D03*
Y39370D02*
D03*
X424803Y31496D02*
D03*
Y39370D02*
D03*
X227953Y159252D02*
D03*
Y166732D02*
D03*
X406102Y167913D02*
D03*
Y160433D02*
D03*
X396752Y167913D02*
D03*
Y160433D02*
D03*
X387402Y167913D02*
D03*
Y160433D02*
D03*
X420472Y84646D02*
D03*
Y76772D02*
D03*
X435827Y84252D02*
D03*
Y76378D02*
D03*
Y102165D02*
D03*
Y94685D02*
D03*
X420472Y102559D02*
D03*
Y95079D02*
D03*
X424803Y167913D02*
D03*
Y160433D02*
D03*
X415453Y167913D02*
D03*
Y160433D02*
D03*
X381496Y192913D02*
D03*
Y200787D02*
D03*
X401181Y201575D02*
D03*
Y193701D02*
D03*
X381496Y210236D02*
D03*
Y218110D02*
D03*
X401181Y210630D02*
D03*
Y218504D02*
D03*
X321260Y192126D02*
D03*
Y200000D02*
D03*
X375197Y84646D02*
D03*
Y76772D02*
D03*
X286614Y216339D02*
D03*
Y223819D02*
D03*
X374410Y168110D02*
D03*
Y160236D02*
D03*
X311417Y57677D02*
D03*
Y50197D02*
D03*
X298425Y57677D02*
D03*
Y65158D02*
D03*
D78*
X112598Y312008D02*
D03*
X83465Y319488D02*
D03*
D79*
Y308465D02*
D03*
X112598Y300984D02*
D03*
D80*
X83858Y271457D02*
D03*
D81*
X280709Y172835D02*
D03*
X286614D02*
D03*
X161811Y177559D02*
D03*
X167717Y177559D02*
D03*
X148031Y245669D02*
D03*
X153937D02*
D03*
X116535Y127165D02*
D03*
X110630Y127165D02*
D03*
X177953Y128740D02*
D03*
X172047Y128740D02*
D03*
X79134Y233858D02*
D03*
X85039D02*
D03*
X79134Y226378D02*
D03*
X85039D02*
D03*
X169291Y262205D02*
D03*
X163386D02*
D03*
X133465Y164173D02*
D03*
X127559Y164173D02*
D03*
X155118Y164567D02*
D03*
X149213Y164567D02*
D03*
X181890Y244882D02*
D03*
X175984Y244882D02*
D03*
X185433Y268504D02*
D03*
X191339Y268504D02*
D03*
X192126Y119291D02*
D03*
X198031Y119291D02*
D03*
D82*
X255906Y180905D02*
D03*
X266142Y184646D02*
D03*
X266142Y177165D02*
D03*
D83*
X256496Y166535D02*
D03*
X265945Y162795D02*
D03*
Y170276D02*
D03*
D84*
X150984Y253543D02*
D03*
X147244Y263779D02*
D03*
X154724Y263779D02*
D03*
X147441Y220866D02*
D03*
X143701Y231102D02*
D03*
X151181Y231102D02*
D03*
D85*
X227953Y175197D02*
D03*
Y183071D02*
D03*
X134252Y222047D02*
D03*
Y229921D02*
D03*
X118110Y136221D02*
D03*
Y144095D02*
D03*
X170866Y137008D02*
D03*
Y144882D02*
D03*
X81496Y249606D02*
D03*
Y241732D02*
D03*
D86*
X340158Y193524D02*
D03*
Y198524D02*
D03*
Y203524D02*
D03*
Y208524D02*
D03*
Y213524D02*
D03*
Y218524D02*
D03*
Y223524D02*
D03*
Y228524D02*
D03*
X363779D02*
D03*
Y223524D02*
D03*
Y218524D02*
D03*
Y213524D02*
D03*
Y208524D02*
D03*
Y203524D02*
D03*
Y198524D02*
D03*
Y193524D02*
D03*
D87*
X166142Y114567D02*
D03*
Y75197D02*
D03*
X119291Y114567D02*
D03*
Y75197D02*
D03*
D88*
X255906Y133071D02*
D03*
X267717D02*
D03*
X255906Y145276D02*
D03*
X267717D02*
D03*
X255906Y155118D02*
D03*
X267717D02*
D03*
D89*
X175984Y226927D02*
D03*
Y195472D02*
D03*
D90*
X136122Y196761D02*
D03*
D91*
X152756Y184861D02*
D03*
X150197D02*
D03*
X147638D02*
D03*
X145079D02*
D03*
X142519D02*
D03*
X139960D02*
D03*
X137401D02*
D03*
X134842D02*
D03*
X132283D02*
D03*
X129724D02*
D03*
X127165D02*
D03*
X124606D02*
D03*
X122047D02*
D03*
X119488D02*
D03*
Y208661D02*
D03*
X122047D02*
D03*
X124606D02*
D03*
X127165D02*
D03*
X129724D02*
D03*
X132283D02*
D03*
X134842D02*
D03*
X137401D02*
D03*
X139960D02*
D03*
X142519D02*
D03*
X145079D02*
D03*
X147638D02*
D03*
X150197D02*
D03*
X152756D02*
D03*
D92*
X254724Y40748D02*
D03*
Y70276D02*
D03*
D93*
X164567Y56693D02*
D03*
X152756D02*
D03*
X134252D02*
D03*
X122441D02*
D03*
D94*
X425591Y141142D02*
D03*
X416929D02*
D03*
X425591Y126575D02*
D03*
X416929D02*
D03*
D95*
X133858Y144095D02*
D03*
Y127717D02*
D03*
X155905Y145276D02*
D03*
Y128898D02*
D03*
D96*
X325197Y65748D02*
D03*
Y60748D02*
D03*
Y55748D02*
D03*
Y50748D02*
D03*
X348425Y65748D02*
D03*
Y60748D02*
D03*
Y55748D02*
D03*
Y50748D02*
D03*
D97*
X59646Y302264D02*
D03*
Y267815D02*
D03*
X41929Y302264D02*
D03*
Y267815D02*
D03*
D98*
X389764Y60236D02*
D03*
Y48425D02*
D03*
D99*
X428839Y60630D02*
D03*
Y58661D02*
D03*
Y56693D02*
D03*
Y54724D02*
D03*
Y52756D02*
D03*
X419193D02*
D03*
Y54724D02*
D03*
Y56693D02*
D03*
Y58661D02*
D03*
Y60630D02*
D03*
D100*
X425984Y51870D02*
D03*
X424016D02*
D03*
X422047D02*
D03*
Y61516D02*
D03*
X424016D02*
D03*
X425984D02*
D03*
D101*
X362205Y144370D02*
D03*
X365354D02*
D03*
X368504D02*
D03*
X371654D02*
D03*
X374803D02*
D03*
X393701D02*
D03*
X390551D02*
D03*
X387402D02*
D03*
X384252D02*
D03*
X381102D02*
D03*
X377953D02*
D03*
X393701Y99724D02*
D03*
X390551D02*
D03*
X387402D02*
D03*
X384252D02*
D03*
X381102D02*
D03*
X362205D02*
D03*
X365354D02*
D03*
X368504D02*
D03*
X371654D02*
D03*
X374803D02*
D03*
X377953D02*
D03*
D102*
X400276Y137795D02*
D03*
Y134646D02*
D03*
Y131496D02*
D03*
Y128347D02*
D03*
Y125197D02*
D03*
Y106299D02*
D03*
Y109449D02*
D03*
Y112598D02*
D03*
Y115748D02*
D03*
Y118898D02*
D03*
Y122047D02*
D03*
X355630Y106299D02*
D03*
Y109449D02*
D03*
Y112598D02*
D03*
Y115748D02*
D03*
Y118898D02*
D03*
Y137795D02*
D03*
Y134646D02*
D03*
Y131496D02*
D03*
Y128347D02*
D03*
Y125197D02*
D03*
Y122047D02*
D03*
D103*
X73327Y106299D02*
D03*
X60532D02*
D03*
D104*
X98032Y276575D02*
D03*
Y304134D02*
D03*
X50394Y276575D02*
D03*
Y304134D02*
D03*
X98032Y276575D02*
D03*
Y304134D02*
D03*
D105*
X325984Y25984D02*
D03*
X316142D02*
D03*
X218425Y314449D02*
D03*
X208425D02*
D03*
X218425Y304449D02*
D03*
X208425D02*
D03*
X198425Y314449D02*
D03*
Y304449D02*
D03*
X188425Y314449D02*
D03*
Y304449D02*
D03*
X178425D02*
D03*
Y314449D02*
D03*
D106*
X248125Y288978D02*
D03*
X148725D02*
D03*
D107*
X17717Y222244D02*
D03*
Y236024D02*
D03*
Y50591D02*
D03*
Y64370D02*
D03*
X60433Y17791D02*
D03*
X46654D02*
D03*
X122047Y19291D02*
D03*
X108268D02*
D03*
X94488D02*
D03*
X80709D02*
D03*
X156102Y17717D02*
D03*
X142323D02*
D03*
X190354D02*
D03*
X176575D02*
D03*
X258858D02*
D03*
X245079D02*
D03*
X224606D02*
D03*
X210827D02*
D03*
X17717Y119095D02*
D03*
Y132874D02*
D03*
Y153347D02*
D03*
Y167126D02*
D03*
Y187598D02*
D03*
Y201378D02*
D03*
Y84842D02*
D03*
Y98622D02*
D03*
D108*
X151476Y191643D02*
D03*
X146358D02*
D03*
X141240D02*
D03*
X136122D02*
D03*
X131004D02*
D03*
X125885D02*
D03*
X120767D02*
D03*
X151476Y196761D02*
D03*
X146358D02*
D03*
X141240D02*
D03*
X131004D02*
D03*
X125885D02*
D03*
X120767D02*
D03*
X151476Y201880D02*
D03*
X146358D02*
D03*
X141240D02*
D03*
X136122D02*
D03*
X131004D02*
D03*
X125885D02*
D03*
X120767D02*
D03*
X454331Y121260D02*
D03*
X446457D02*
D03*
X174016Y87402D02*
D03*
X121653Y159449D02*
D03*
X138976Y158268D02*
D03*
X142126Y164173D02*
D03*
X162205Y164567D02*
D03*
X398031Y77559D02*
D03*
X422047Y46063D02*
D03*
X112992Y188976D02*
D03*
X159449Y184861D02*
D03*
X59842Y287008D02*
D03*
X118110D02*
D03*
X459449Y88189D02*
D03*
X389370Y41732D02*
D03*
X437008Y122047D02*
D03*
X412205Y69685D02*
D03*
X377559Y57087D02*
D03*
X433858Y168110D02*
D03*
X286614Y59055D02*
D03*
X337795Y100000D02*
D03*
X329921Y113779D02*
D03*
X337795Y59055D02*
D03*
X368504Y68110D02*
D03*
X364961Y177559D02*
D03*
X406299Y205512D02*
D03*
X331447Y198524D02*
D03*
X338583Y181890D02*
D03*
X330709Y193524D02*
D03*
X331102Y181890D02*
D03*
X442520Y102362D02*
D03*
X374803Y89370D02*
D03*
X231496Y38976D02*
D03*
X357874Y164567D02*
D03*
X358661Y161417D02*
D03*
X340158D02*
D03*
X340551Y164961D02*
D03*
X179921Y172047D02*
D03*
X382283Y112598D02*
D03*
X395669Y155118D02*
D03*
X97638Y180709D02*
D03*
X98032Y133858D02*
D03*
X291339Y187008D02*
D03*
X294488Y182283D02*
D03*
X317717Y240551D02*
D03*
X303543Y235433D02*
D03*
X198425Y230315D02*
D03*
X226772Y266929D02*
D03*
X411811Y150394D02*
D03*
X407776Y152756D02*
D03*
X192126Y144095D02*
D03*
X188583Y81102D02*
D03*
X199606Y142520D02*
D03*
X183465Y93701D02*
D03*
X433465Y62205D02*
D03*
X413779Y52756D02*
D03*
X408661Y119685D02*
D03*
X277953Y199606D02*
D03*
X238583Y189764D02*
D03*
X85039Y216929D02*
D03*
X115354Y208268D02*
D03*
X140945Y221260D02*
D03*
X125984Y217717D02*
D03*
X222835Y147244D02*
D03*
X255906Y139370D02*
D03*
X272441Y203150D02*
D03*
X378346Y154331D02*
D03*
X140551Y246850D02*
D03*
X182677Y256693D02*
D03*
X196850Y198031D02*
D03*
X107480Y256693D02*
D03*
X141339Y267717D02*
D03*
X328740Y225984D02*
D03*
X366535Y92520D02*
D03*
X244094Y190157D02*
D03*
X198819Y248031D02*
D03*
X192126Y238189D02*
D03*
X126378Y270472D02*
D03*
X118110Y234252D02*
D03*
X140157Y250394D02*
D03*
X105118Y248425D02*
D03*
X131102Y215748D02*
D03*
X139960Y216535D02*
D03*
X142519Y213780D02*
D03*
X345669Y112598D02*
D03*
X349606Y115748D02*
D03*
X348031Y209449D02*
D03*
X350031Y214929D02*
D03*
X330315Y128347D02*
D03*
X464173Y64173D02*
D03*
X105512Y170709D02*
D03*
X205905Y174015D02*
D03*
X120079Y170079D02*
D03*
X191732Y110236D02*
D03*
D109*
X136122Y196761D02*
D03*
X306299Y125197D02*
D03*
X330709Y41732D02*
D03*
X334252Y70866D02*
D03*
X331890Y79921D02*
D03*
X304331Y84646D02*
D03*
X201969Y263779D02*
D03*
X215748Y201181D02*
D03*
X177165Y272047D02*
D03*
X238976Y90551D02*
D03*
X114173Y172441D02*
D03*
X203150Y162205D02*
D03*
X220079Y172441D02*
D03*
X219685Y163386D02*
D03*
X184449Y73819D02*
D03*
X186221Y100394D02*
D03*
D110*
X362008Y20472D02*
D03*
X372008D02*
D03*
X382008D02*
D03*
X392008D02*
D03*
X402008D02*
D03*
X412008D02*
D03*
X63150Y220079D02*
D03*
X63150Y250079D02*
D03*
X53150D02*
D03*
X227165Y215748D02*
D03*
Y225748D02*
D03*
Y205748D02*
D03*
D111*
X19685Y269685D02*
D03*
X484252D02*
D03*
X19685Y17717D02*
D03*
X484252Y328740D02*
D03*
Y17717D02*
D03*
X287717D02*
D03*
Y328740D02*
D03*
D112*
X255512Y202756D02*
D03*
Y209449D02*
D03*
Y216142D02*
D03*
Y222835D02*
D03*
Y229528D02*
D03*
D113*
X53150Y220079D02*
D03*
D114*
X18504Y296850D02*
D03*
D115*
X75906Y81339D02*
D03*
X55905Y51339D02*
D03*
X75906Y51339D02*
D03*
Y91339D02*
D03*
X55905D02*
D03*
Y81339D02*
D03*
D116*
X486378Y44094D02*
D03*
X476378D02*
D03*
X486378Y54094D02*
D03*
X476378D02*
D03*
X486378Y64095D02*
D03*
X476378D02*
D03*
X486378Y74094D02*
D03*
X476378D02*
D03*
X486378Y84095D02*
D03*
X476378D02*
D03*
X486378Y94095D02*
D03*
X476378D02*
D03*
X486378Y104095D02*
D03*
X476378D02*
D03*
X486378Y114094D02*
D03*
X476378D02*
D03*
X486378Y124094D02*
D03*
X476378D02*
D03*
X486378Y134095D02*
D03*
X476378D02*
D03*
X486378Y144095D02*
D03*
X476378D02*
D03*
X486378Y154095D02*
D03*
X476378D02*
D03*
X486378Y164094D02*
D03*
X476378D02*
D03*
X486378Y174094D02*
D03*
X476378D02*
D03*
X486378Y184095D02*
D03*
X476378D02*
D03*
X486378Y194095D02*
D03*
X476378D02*
D03*
X486378Y204095D02*
D03*
X476378D02*
D03*
X486378Y214094D02*
D03*
X476378D02*
D03*
X486378Y224095D02*
D03*
X476378D02*
D03*
X486378Y234095D02*
D03*
X476378D02*
D03*
D117*
X185039Y64961D02*
D03*
X171260D02*
D03*
Y49213D02*
D03*
X179134D02*
D03*
X185039D02*
D03*
Y57480D02*
D03*
X147638Y33465D02*
D03*
Y47244D02*
D03*
Y76772D02*
D03*
X137795D02*
D03*
Y68898D02*
D03*
X147638D02*
D03*
X145669Y62992D02*
D03*
Y57087D02*
D03*
X140157D02*
D03*
Y62992D02*
D03*
Y47244D02*
D03*
X127953Y48819D02*
D03*
Y42913D02*
D03*
Y33465D02*
D03*
X159055Y48819D02*
D03*
Y42520D02*
D03*
Y35827D02*
D03*
X116142Y66929D02*
D03*
Y60236D02*
D03*
Y52756D02*
D03*
Y45276D02*
D03*
Y37008D02*
D03*
X169685Y122047D02*
D03*
X149606D02*
D03*
X123622Y122441D02*
D03*
X137795Y121653D02*
D03*
X144488Y125197D02*
D03*
Y134646D02*
D03*
Y141732D02*
D03*
Y149606D02*
D03*
X159449Y155512D02*
D03*
X122835Y153543D02*
D03*
X111811Y153150D02*
D03*
X112205Y163386D02*
D03*
X179528Y136221D02*
D03*
Y146063D02*
D03*
Y153150D02*
D03*
X179921Y161417D02*
D03*
X111417Y135039D02*
D03*
Y143701D02*
D03*
X90945Y97244D02*
D03*
Y107480D02*
D03*
Y116142D02*
D03*
X100787Y121653D02*
D03*
X90945Y81890D02*
D03*
Y70079D02*
D03*
Y60630D02*
D03*
Y50787D02*
D03*
X386221Y85827D02*
D03*
X171260Y57480D02*
D03*
M02*
