G04 Layer_Color=32896*
%FSLAX25Y25*%
%MOIN*%
G70*
G01*
G75*
%ADD43C,0.01000*%
%ADD64C,0.01575*%
%ADD67C,0.00500*%
D43*
X357008Y15472D02*
Y25472D01*
X417008Y15472D02*
Y25472D01*
X357008Y15472D02*
X417008D01*
X357008Y25472D02*
X417008D01*
X81280Y250791D02*
X79281D01*
X80281D01*
Y255789D01*
X79281Y256789D01*
X78281D01*
X77281Y255789D01*
X86279Y256789D02*
Y250791D01*
X83280Y253790D01*
X87278D01*
X33642Y250791D02*
X31643D01*
X32643D01*
Y255789D01*
X31643Y256789D01*
X30643D01*
X29644Y255789D01*
X35642Y251790D02*
X36641Y250791D01*
X38641D01*
X39641Y251790D01*
Y252790D01*
X38641Y253790D01*
X37641D01*
X38641D01*
X39641Y254789D01*
Y255789D01*
X38641Y256789D01*
X36641D01*
X35642Y255789D01*
X416512Y28981D02*
Y32917D01*
X414544D01*
X413888Y32261D01*
Y30949D01*
X414544Y30293D01*
X416512D01*
X412576Y28981D02*
X411264D01*
X411920D01*
Y32917D01*
X412576Y32261D01*
X409296Y28981D02*
X407984D01*
X408640D01*
Y32917D01*
X409296Y32261D01*
D64*
X113583Y326772D02*
G03*
X113583Y326772I-787J0D01*
G01*
X65945D02*
G03*
X65945Y326772I-787J0D01*
G01*
D67*
X88189Y260827D02*
X109843D01*
X86221D02*
X87992D01*
X86221D02*
Y295079D01*
X109843Y260827D02*
Y264567D01*
Y278543D02*
Y302559D01*
X107874Y325000D02*
Y327756D01*
X88189D02*
X107874D01*
X88189Y321850D02*
Y327756D01*
Y321850D02*
X105709D01*
X86221D02*
X88189D01*
X86221Y317913D02*
Y321850D01*
X40551Y260827D02*
X62205D01*
X38583D02*
X40354D01*
X38583D02*
Y295079D01*
X62205Y260827D02*
Y264567D01*
Y278543D02*
Y302559D01*
X60236Y325000D02*
Y327756D01*
X40551D02*
X60236D01*
X40551Y321850D02*
Y327756D01*
Y321850D02*
X58071D01*
X38583D02*
X40551D01*
X38583Y317913D02*
Y321850D01*
M02*
